<svg width="600" height="600" viewBox="0 0 600 600" fill="none" xmlns="http://www.w3.org/2000/svg">
<path opacity="0.3" fill-rule="evenodd" clip-rule="evenodd" d="M287.848 19.7595C235.382 78.396 250.668 186.086 250.668 186.086V186.061C245.663 75.358 299.51 32.0352 344.48 0C315.918 16.1507 295.799 18.6967 289.699 19.4687C288.69 19.5963 288.065 19.6754 287.848 19.7595ZM205.181 220.418C205.181 220.418 205.135 220.352 205.047 220.223C150.978 123.734 179.581 60.802 205.328 11.9547C187.03 39.2925 170.191 50.6461 165.128 54.0591C164.304 54.6147 163.792 54.9599 163.637 55.1293C143.704 129.093 201.878 215.588 205.047 220.223L205.156 220.418H205.181ZM311.269 42.3346C304.07 53.968 307.62 69.257 319.232 76.4939H319.208C330.82 83.7309 346.082 80.1741 353.305 68.5407C360.529 56.9073 356.979 41.6183 345.367 34.3814C333.754 27.1445 318.493 30.7012 311.269 42.3346ZM286.91 119.397C276.925 113.173 273.868 100.033 280.081 90.0296C286.294 80.0264 299.41 76.9636 309.395 83.1879C319.38 89.4122 322.438 102.552 316.225 112.556C310.012 122.559 296.895 125.622 286.91 119.397ZM265.729 138.959C260.428 147.529 263.041 158.792 271.597 164.127C280.152 169.438 291.395 166.82 296.72 158.249C302.045 149.678 299.407 138.415 290.852 133.08C282.297 127.77 271.054 130.388 265.729 138.959ZM505.033 144.591C491.473 146.394 481.956 158.868 483.756 172.452C485.556 186.037 498.007 195.571 511.567 193.768C525.127 191.965 534.644 179.492 532.844 165.907C531.044 152.322 518.593 142.788 505.033 144.591ZM430.132 174.749C428.578 163.066 436.764 152.347 448.401 150.791C460.063 149.234 470.763 157.435 472.316 169.118C473.869 180.8 465.684 191.52 454.022 193.076C442.36 194.632 431.66 186.432 430.107 174.774L430.132 174.749ZM401.628 170.821C391.618 172.155 384.616 181.343 385.947 191.346C387.279 201.35 396.45 208.389 406.435 207.055C416.445 205.721 423.447 196.533 422.116 186.53C420.785 176.527 411.613 169.487 401.628 170.821ZM350.028 215.479C348.918 207.106 354.786 199.399 363.144 198.288C371.502 197.176 379.195 203.055 380.304 211.428C381.413 219.801 375.546 227.507 367.188 228.619C358.83 229.73 351.137 223.852 350.028 215.479ZM334.567 228.396C327.541 229.334 322.61 235.806 323.547 242.845H323.522C324.459 249.884 330.918 254.824 337.945 253.886C344.972 252.947 349.903 246.476 348.966 239.436C348.029 232.397 341.594 227.457 334.567 228.396ZM267.507 227.409C263.759 233.436 265.609 241.365 271.624 245.119H271.6C277.616 248.873 285.53 247.021 289.277 240.994C293.025 234.967 291.176 227.039 285.16 223.285C279.144 219.53 271.255 221.383 267.507 227.409ZM267.382 207.252C260.207 202.782 258.038 193.347 262.475 186.184C266.938 179.021 276.356 176.798 283.506 181.269C290.681 185.739 292.875 195.174 288.412 202.337C283.95 209.5 274.532 211.698 267.382 207.252ZM223.518 281.007C225.984 287.651 233.38 291.035 240.012 288.565C246.644 286.095 250.022 278.685 247.557 272.041C245.091 265.397 237.719 262.013 231.062 264.483C224.43 266.953 221.053 274.363 223.518 281.007ZM207.517 268.757C199.603 271.696 190.826 267.67 187.867 259.742C184.933 251.813 188.952 243.02 196.866 240.081C204.78 237.142 213.558 241.168 216.516 249.096C219.45 257.025 215.431 265.818 207.542 268.757H207.517ZM152.593 228.273C156.118 237.733 166.621 242.549 176.064 239.017C185.482 235.51 190.29 224.988 186.789 215.528C183.263 206.068 172.76 201.252 163.317 204.784C153.899 208.291 149.092 218.813 152.593 228.273ZM150.076 199.524C139.055 203.624 126.802 198.017 122.709 186.976C118.616 175.936 124.213 163.66 135.234 159.56C146.255 155.46 158.508 161.067 162.601 172.107C166.693 183.148 161.097 195.424 150.076 199.524ZM104.14 133.057C108.898 145.9 123.149 152.421 135.969 147.654C148.79 142.887 155.299 128.611 150.54 115.767C145.782 102.923 131.531 96.4026 118.711 101.17C105.89 105.937 99.3812 120.213 104.14 133.057ZM238.908 348.633C245.688 350.733 252.863 346.954 254.983 340.186V340.211C257.103 333.418 253.331 326.231 246.551 324.107C239.771 321.982 232.572 325.761 230.476 332.554C228.38 339.321 232.153 346.534 238.908 348.633ZM219.455 353.82C216.94 361.897 208.385 366.392 200.323 363.873C192.26 361.353 187.773 352.783 190.288 344.73C192.803 336.654 201.358 332.159 209.42 334.678C217.482 337.197 221.97 345.768 219.455 353.82ZM153.872 372.567C163.512 375.58 173.719 370.196 176.727 360.563C179.735 350.955 174.36 340.68 164.745 337.691C155.105 334.678 144.898 340.063 141.89 349.695C138.882 359.303 144.257 369.578 153.872 372.567ZM129.663 356.981C126.162 368.219 114.229 374.493 103.011 370.986C91.7683 367.478 85.5306 355.524 89.0316 344.286C92.5326 333.047 104.466 326.774 115.684 330.281C126.902 333.788 133.164 345.743 129.663 356.981ZM49.0653 352.734C62.1324 356.81 76.0131 349.498 80.0812 336.432C84.1493 323.342 76.8514 309.436 63.809 305.361C50.7419 301.285 36.8612 308.596 32.7931 321.662C28.725 334.753 35.9982 348.659 49.0653 352.734ZM301.73 377.803C307.524 373.728 308.954 365.725 304.886 359.896C300.817 354.067 292.829 352.659 287.011 356.735C281.217 360.81 279.787 368.813 283.855 374.642C287.923 380.471 295.936 381.879 301.73 377.803ZM293.909 396.402C298.741 403.318 297.065 412.852 290.161 417.693C283.258 422.534 273.717 420.854 268.909 413.939C264.076 407.023 265.753 397.489 272.681 392.623C279.584 387.782 289.101 389.461 293.934 396.402H293.909ZM268.614 459.856C276.873 454.051 278.87 442.665 273.101 434.391C267.332 426.141 255.966 424.116 247.707 429.895C239.447 435.7 237.45 447.086 243.219 455.361C248.989 463.635 260.355 465.635 268.614 459.856ZM241.495 469.487C248.226 479.144 245.883 492.432 236.268 499.175C226.628 505.918 213.364 503.572 206.633 493.939C199.902 484.282 202.244 470.993 211.884 464.25C221.524 457.507 234.789 459.854 241.52 469.487H241.495ZM188.833 530.767C200.026 522.888 202.763 507.426 194.922 496.212H194.898C187.082 484.999 171.624 482.257 160.43 490.111C149.237 497.991 146.5 513.452 154.34 524.666C162.181 535.88 177.639 538.621 188.833 530.767ZM363.19 345.867C363.535 338.778 358.062 332.751 350.986 332.405C343.91 332.06 337.894 337.543 337.549 344.632C337.204 351.72 342.677 357.747 349.753 358.093C356.853 358.414 362.845 352.955 363.19 345.867ZM373.101 363.427C381.533 363.822 388.018 371.01 387.623 379.432C387.204 387.879 380.054 394.375 371.647 393.98C363.215 393.585 356.73 386.397 357.125 377.975C357.519 369.528 364.694 363.032 373.101 363.427ZM407.72 422.286C408.188 412.184 400.422 403.638 390.363 403.144H390.338C380.279 402.675 371.748 410.455 371.255 420.532C370.787 430.634 378.553 439.18 388.612 439.674C398.696 440.144 407.226 432.363 407.72 422.286ZM398.743 449.678C410.479 450.246 419.552 460.224 418.985 471.981C418.418 483.763 408.457 492.828 396.722 492.26C384.986 491.691 375.913 481.713 376.48 469.931C377.047 458.174 387.008 449.085 398.768 449.653L398.743 449.678ZM414.918 528.89C415.559 515.206 405.031 503.598 391.373 502.931C377.714 502.264 366.126 512.835 365.46 526.519C364.819 540.202 375.347 551.836 389.006 552.478C402.664 553.145 414.252 542.573 414.918 528.89ZM286.661 287.009C293.343 279.648 304.684 279.08 312.031 285.749C319.378 292.418 319.945 303.829 313.289 311.189C306.607 318.55 295.266 319.118 287.894 312.424C280.547 305.755 280.004 294.344 286.661 287.009ZM314.474 255.369C307.94 256.258 303.33 262.285 304.193 268.855C305.08 275.425 311.096 280.019 317.654 279.155C324.212 278.266 328.823 272.239 327.935 265.669C327.048 259.099 321.032 254.48 314.474 255.369ZM279.465 276.56C273.843 273.053 272.142 265.668 275.619 260.036C279.12 254.405 286.491 252.676 292.113 256.183C297.734 259.691 299.46 267.076 295.959 272.707C292.458 278.339 285.086 280.068 279.465 276.56ZM254.362 294.442C256.655 300.642 263.558 303.803 269.747 301.506H269.771C275.984 299.185 279.116 292.269 276.823 286.069C274.505 279.845 267.602 276.683 261.413 279.005C255.2 281.327 252.045 288.243 254.362 294.442ZM283.506 324.453C281.534 330.776 274.828 334.308 268.516 332.332C262.204 330.356 258.679 323.638 260.651 317.315C262.623 310.992 269.33 307.46 275.641 309.436C281.953 311.412 285.479 318.13 283.506 324.453ZM307.1 344.312C312.524 340.533 313.856 333.049 310.059 327.616C306.287 322.182 298.816 320.848 293.392 324.652C287.968 328.431 286.637 335.915 290.434 341.349C294.206 346.782 301.676 348.116 307.1 344.312ZM328.773 308.496C335.38 308.817 340.484 314.449 340.163 321.044C339.843 327.663 334.246 332.776 327.639 332.455C321.031 332.134 315.928 326.527 316.248 319.908C316.569 313.288 322.165 308.175 328.773 308.496ZM342.555 281.921C337.649 277.45 330.08 277.821 325.642 282.736L325.617 282.761C321.18 287.676 321.549 295.259 326.456 299.704C331.362 304.15 338.931 303.78 343.369 298.865C347.832 293.949 347.462 286.367 342.555 281.921ZM358.064 280.809C362.822 275.548 370.934 275.153 376.185 279.92C381.437 284.687 381.831 292.813 377.073 298.074C372.315 303.335 364.203 303.73 358.952 298.963C353.7 294.196 353.306 286.07 358.064 280.809ZM417.603 282.366C411.365 276.685 401.701 277.179 396.03 283.428C390.359 289.702 390.852 299.359 397.09 305.04C403.352 310.696 412.992 310.251 418.663 303.978C424.309 297.729 423.841 288.047 417.603 282.366ZM437.621 295.331C444.402 287.847 455.94 287.279 463.386 294.071C470.856 300.839 471.399 312.398 464.643 319.882C457.863 327.366 446.349 327.934 438.879 321.142C431.408 314.374 430.866 302.815 437.621 295.331ZM508.849 316.918C500.146 309.014 486.685 309.681 478.795 318.4C470.906 327.119 471.571 340.605 480.274 348.509C488.978 356.413 502.439 355.746 510.329 347.027C518.218 338.308 517.553 324.822 508.849 316.918ZM515.163 357.97C524.359 347.819 540.015 347.053 550.124 356.241C560.257 365.454 561.021 381.138 551.825 391.29C542.653 401.441 526.997 402.207 516.864 393.019C506.731 383.806 505.967 368.122 515.163 357.97ZM361.365 249.44C354.61 247.291 347.386 251.021 345.241 257.788V257.764C343.096 264.531 346.819 271.768 353.574 273.917C360.33 276.066 367.553 272.336 369.698 265.569C371.843 258.826 368.121 251.589 361.365 249.44ZM380.849 244.354C383.413 236.302 391.993 231.856 400.03 234.4C408.068 236.969 412.506 245.564 409.942 253.616C407.378 261.668 398.798 266.114 390.76 263.57C382.723 261.001 378.285 252.406 380.849 244.354ZM446.5 225.976C436.91 222.914 426.653 228.249 423.596 237.857H423.571C420.514 247.465 425.839 257.74 435.43 260.802C445.046 263.865 455.302 258.555 458.359 248.922C461.416 239.314 456.091 229.039 446.5 225.976ZM470.637 241.735C474.187 230.521 486.169 224.297 497.363 227.878C508.581 231.435 514.769 243.439 511.194 254.652C507.644 265.866 495.661 272.066 484.468 268.509C473.275 264.927 467.086 252.948 470.637 241.735ZM551.211 246.428C538.193 242.278 524.263 249.515 520.121 262.557V262.581C515.954 275.623 523.178 289.578 536.196 293.727C549.214 297.877 563.144 290.64 567.286 277.599C571.453 264.533 564.229 250.577 551.211 246.428ZM297.558 237.832C293.786 231.83 295.561 223.902 301.552 220.098C307.544 216.319 315.458 218.097 319.255 224.099C323.052 230.101 321.252 238.03 315.261 241.834C309.269 245.637 301.355 243.834 297.558 237.832ZM314.966 180.751C307.841 185.271 305.696 194.731 310.208 201.869V201.844C314.695 208.982 324.138 211.131 331.263 206.611C338.388 202.116 340.533 192.656 336.021 185.518C331.534 178.38 322.091 176.231 314.966 180.751ZM332.767 164.918C327.392 156.397 329.931 145.085 338.437 139.7C346.943 134.316 358.235 136.86 363.61 145.381C368.985 153.902 366.445 165.215 357.939 170.599C349.433 175.984 338.166 173.44 332.767 164.918ZM372.635 101.912C362.699 108.21 359.716 121.375 366.003 131.329V131.304C372.29 141.283 385.431 144.247 395.367 137.948C405.303 131.65 408.286 118.485 401.999 108.531C395.712 98.6021 382.571 95.6135 372.635 101.912ZM413.759 106.825C406.461 95.2407 409.913 79.927 421.451 72.616C433.014 65.305 448.3 68.7629 455.623 80.3469C462.921 91.931 459.469 107.245 447.906 114.556C436.343 121.867 421.057 118.409 413.759 106.825ZM239.402 248.501C238.613 255.565 243.692 261.912 250.719 262.703C257.77 263.493 264.107 258.43 264.896 251.366C265.685 244.302 260.63 237.954 253.579 237.164C246.528 236.373 240.191 241.461 239.402 248.501ZM230.621 230.348C222.239 229.409 216.198 221.826 217.135 213.429C218.072 205.031 225.641 198.979 234.024 199.943C242.406 200.881 248.447 208.464 247.51 216.837C246.573 225.235 239.004 231.286 230.621 230.348ZM199.827 169.389C198.693 179.417 205.917 188.482 215.927 189.593C225.937 190.705 234.961 183.493 236.095 173.465C237.229 163.412 230.005 154.372 219.995 153.261C209.985 152.149 200.937 159.361 199.827 169.389ZM210.505 142.616C198.819 141.307 190.411 130.76 191.718 119.053C193.025 107.345 203.552 98.9226 215.239 100.232C226.925 101.541 235.333 112.087 234.026 123.795C232.719 135.502 222.191 143.925 210.505 142.616ZM199.409 62.5411C197.88 76.1505 207.668 88.4261 221.253 89.9574C234.838 91.4888 247.091 81.6831 248.62 68.0737C250.148 54.4643 240.36 42.1887 226.776 40.6574C213.191 39.126 200.937 48.9317 199.409 62.5411ZM240.83 314.894C235.8 319.908 227.689 319.883 222.684 314.869C217.679 309.855 217.679 301.704 222.684 296.69C227.713 291.676 235.825 291.676 240.83 296.69C245.835 301.704 245.835 309.855 240.805 314.869L240.83 314.894ZM181.435 310.35C187.402 316.327 197.067 316.352 203.033 310.374C209 304.397 209.024 294.715 203.058 288.738C197.091 282.76 187.427 282.736 181.46 288.713C175.494 294.69 175.494 304.372 181.435 310.35ZM162.102 296.393C154.977 303.531 143.414 303.507 136.289 296.369C129.188 289.23 129.188 277.646 136.313 270.533C143.439 263.395 155.002 263.42 162.127 270.558C169.228 277.696 169.228 289.28 162.078 296.393H162.102ZM92.0124 271.226C100.321 279.574 113.807 279.599 122.116 271.275L122.091 271.25C130.425 262.927 130.449 249.441 122.141 241.092C113.832 232.769 100.346 232.744 92.0371 241.068C83.7284 249.391 83.7037 262.877 92.0124 271.226ZM87.7969 229.954C78.1075 239.611 62.427 239.611 52.7869 229.905C43.1222 220.198 43.1469 204.489 52.8362 194.831C62.5256 185.174 78.1815 185.174 87.8462 194.881C97.5109 204.588 97.4863 220.296 87.7969 229.954ZM265.927 370.37C272.979 369.406 277.86 362.935 276.899 355.896C275.913 348.856 269.453 343.941 262.426 344.904C255.424 345.892 250.518 352.364 251.48 359.403C252.441 366.418 258.925 371.333 265.927 370.37ZM250.519 383.385C251.678 391.758 245.835 399.489 237.477 400.625C229.119 401.761 221.426 395.932 220.268 387.559C219.109 379.186 224.952 371.48 233.31 370.319C241.668 369.158 249.385 375.012 250.519 383.385ZM199.137 428.264C209.123 426.881 216.1 417.668 214.719 407.665C213.339 397.661 204.142 390.671 194.157 392.055C184.172 393.438 177.195 402.651 178.575 412.654C179.956 422.657 189.152 429.647 199.137 428.264ZM170.587 424.486C172.19 436.144 164.054 446.913 152.417 448.518C140.755 450.124 130.03 441.973 128.428 430.315C126.825 418.656 134.961 407.888 146.598 406.282C158.235 404.677 168.985 412.827 170.587 424.486ZM95.8581 454.966C109.394 453.089 118.861 440.566 116.987 427.007H117.012C115.138 413.422 102.638 403.937 89.1027 405.814C75.5425 407.692 66.075 420.214 67.9488 433.774C69.8225 447.359 82.3226 456.843 95.8581 454.966ZM330.896 352.041C337.059 355.548 339.204 363.402 335.679 369.577C332.178 375.752 324.337 377.901 318.198 374.394C312.035 370.886 309.89 363.032 313.391 356.857C316.892 350.682 324.732 348.533 330.896 352.065V352.041ZM342.311 410.605C346.478 403.269 343.914 393.908 336.591 389.734V389.709C329.269 385.535 319.925 388.104 315.758 395.439C311.591 402.775 314.155 412.136 321.478 416.31C328.8 420.509 338.145 417.941 342.311 410.605ZM334.023 432.982C342.776 437.971 345.833 449.136 340.853 457.904C335.873 466.672 324.729 469.735 315.976 464.746C307.224 459.756 304.166 448.592 309.147 439.824C314.127 431.056 325.271 427.993 334.023 432.982ZM328.431 507.351C334.249 497.125 330.674 484.109 320.467 478.28C310.26 472.451 297.267 476.032 291.448 486.257C285.63 496.483 289.205 509.5 299.412 515.329C309.619 521.158 322.612 517.576 328.431 507.351ZM289.796 522.393C301.68 529.185 305.822 544.326 299.066 556.231C292.286 568.136 277.173 572.286 265.289 565.494C253.405 558.726 249.263 543.56 256.043 531.655C262.824 519.75 277.937 515.601 289.821 522.393H289.796ZM377.39 314.227C374.702 307.657 367.207 304.545 360.649 307.237C354.091 309.929 350.96 317.438 353.672 324.008C356.359 330.578 363.854 333.715 370.412 330.998C376.971 328.306 380.077 320.797 377.39 314.227ZM393.837 325.885C401.628 322.674 410.553 326.379 413.782 334.209C416.987 342.014 413.265 350.955 405.474 354.19C397.683 357.401 388.758 353.672 385.552 345.867C382.347 338.062 386.046 329.121 393.837 325.885ZM450.124 364.442C446.278 355.105 435.627 350.659 426.308 354.512C417.013 358.365 412.575 369.036 416.396 378.372C420.242 387.708 430.893 392.154 440.213 388.301C449.508 384.448 453.97 373.778 450.124 364.442ZM453.623 393.066C464.496 388.571 476.922 393.758 481.409 404.65C485.897 415.543 480.694 428.016 469.846 432.487C458.973 436.982 446.547 431.795 442.06 420.903C437.573 410.01 442.751 397.562 453.623 393.066ZM501.849 457.903C496.647 445.233 482.174 439.206 469.526 444.418C456.878 449.629 450.862 464.128 456.065 476.798C461.267 489.469 475.739 495.496 488.387 490.284C501.035 485.073 507.051 470.574 501.849 457.903ZM303.871 175.835C303.871 175.835 336.193 71.9983 408.703 41.5933C408.933 41.6107 409.528 41.8069 410.488 42.1234C416.315 44.0455 435.592 50.4043 468.319 48.1139C413.98 57.722 346.77 73.7025 303.871 175.859V175.835ZM355.227 188.695L355.143 188.787L355.105 188.829H355.08L355.227 188.695ZM557.842 141.949C504.521 127.854 436.868 114.129 355.227 188.695C358.561 185.049 429.774 108.204 506.462 111.001C506.661 111.115 507.111 111.536 507.835 112.213C512.293 116.382 527.13 130.263 557.842 141.949ZM396.449 222.492C396.449 222.492 496.474 180.181 566.469 216.02C566.605 216.209 566.84 216.791 567.219 217.73L567.219 217.731L567.22 217.732L567.22 217.733C569.521 223.439 577.12 242.282 600 265.839C557.594 230.469 502.046 189.37 396.474 222.492H396.449ZM576.504 336.977C528.279 274.808 419.773 270.659 419.773 270.659V270.684C529.413 285.479 562.352 346.289 585.799 396.33C575.026 365.227 576.128 344.905 576.458 338.808V338.807V338.807V338.806C576.512 337.816 576.545 337.201 576.504 336.977ZM420.635 323.737C420.635 323.737 517.332 373.21 535.009 449.926C534.951 450.144 534.669 450.676 534.214 451.531C531.371 456.875 521.813 474.843 518.54 507.698C518.269 452.421 513.905 383.361 420.66 323.761L420.635 323.737ZM449.09 535.582C465.584 458.594 398.942 372.714 398.942 372.714C458.138 466.325 432.867 530.716 409.716 580.881C426.552 552.607 442.787 540.392 447.66 536.725C448.453 536.129 448.945 535.758 449.09 535.582ZM354.71 409.592C354.71 409.592 354.728 409.682 354.76 409.858C365.007 519.998 313.354 565.843 270.045 600C297.9 582.418 317.918 578.924 323.883 577.883C324.839 577.716 325.434 577.612 325.642 577.523C373.761 518.189 355.84 415.751 354.76 409.858L354.735 409.592H354.71ZM202.171 560.974C273.35 527.531 301.284 422.435 301.284 422.435C262.699 526.296 196.229 545.092 142.334 556.973C175.045 553.291 194.599 558.868 200.427 560.531C201.364 560.798 201.946 560.964 202.171 560.974ZM245.266 409.592C245.266 409.592 172.756 490.532 94.181 487.963C93.9786 487.851 93.5184 487.424 92.7758 486.735C88.2725 482.556 73.3874 468.743 42.677 457.188C96.0795 471.093 163.831 484.579 245.266 409.592ZM33.5307 382.324C103.551 418.138 203.551 375.779 203.551 375.779C98.0032 408.95 42.4064 367.875 0 332.53C22.8808 356.067 30.4795 374.907 32.7802 380.612L32.7803 380.612L32.7809 380.613C33.1596 381.553 33.3947 382.135 33.5307 382.324ZM179.495 325.012L179.345 325.002C70.2653 307.827 38.6171 246.385 16.2487 195.916C26.3681 227.177 24.8535 247.439 24.3949 253.574C24.3194 254.584 24.2726 255.211 24.3109 255.441C69.8735 316.773 173.4 324.601 179.345 325.002L179.612 325.044V325.02C179.612 325.02 179.573 325.017 179.495 325.012ZM72.6849 136.861C86.5656 214.367 180.723 268.533 180.723 268.533C90.5104 204.389 89.5489 135.206 91.9897 79.9778C87.0819 112.607 76.6632 130.086 73.5604 135.291L73.5603 135.291C73.0625 136.126 72.7531 136.645 72.6849 136.861Z" fill="url(#paint0_linear_584_23580)" fill-opacity="0.4"/>
<defs>
<linearGradient id="paint0_linear_584_23580" x1="300" y1="0" x2="300" y2="600" gradientUnits="userSpaceOnUse">
<stop stop-color="#3DA996"/>
<stop offset="1" stop-color="#6F3DA9"/>
</linearGradient>
</defs>
</svg>
