<svg width="361" height="361" viewBox="0 0 361 361" fill="none" xmlns="http://www.w3.org/2000/svg">
<path opacity="0.3" fill-rule="evenodd" clip-rule="evenodd" d="M172.757 12.3091C141.269 47.5007 150.443 112.132 150.443 112.132V112.118C147.439 45.6774 179.756 19.6765 206.746 0.450073C189.604 10.1432 177.529 11.6712 173.867 12.1345C173.262 12.2111 172.887 12.2586 172.757 12.3091ZM123.114 132.697C123.101 132.678 123.084 132.652 123.062 132.621C90.6121 74.711 107.779 36.9414 123.231 7.62486C112.249 24.0321 102.143 30.8462 99.1046 32.8945C98.61 33.228 98.3027 33.4351 98.2095 33.5368C86.2465 77.9275 121.16 129.839 123.062 132.621L123.128 132.738H123.143C123.143 132.738 123.133 132.724 123.114 132.697ZM186.813 25.8579C182.492 32.8399 184.623 42.0158 191.593 46.3592H191.578C198.547 50.7025 207.707 48.5679 212.042 41.5859C216.378 34.6039 214.247 25.428 207.277 21.0846C200.308 16.7413 191.149 18.8759 186.813 25.8579ZM172.194 72.1083C166.201 68.3727 164.366 60.4865 168.095 54.4828C171.824 48.4792 179.696 46.6411 185.689 50.3766C191.681 54.1122 193.516 61.9985 189.787 68.0021C186.059 74.0058 178.187 75.8439 172.194 72.1083ZM159.482 83.8485C156.3 88.9923 157.869 95.752 163.003 98.9539C168.138 102.141 174.885 100.57 178.081 95.4258C181.278 90.282 179.694 83.5223 174.56 80.3204C169.425 77.1333 162.678 78.7046 159.482 83.8485ZM303.104 87.2289C294.966 88.311 289.254 95.797 290.334 103.95C291.414 112.103 298.887 117.825 307.025 116.743C315.164 115.661 320.875 108.175 319.795 100.022C318.715 91.8688 311.242 86.1468 303.104 87.2289ZM258.151 105.329C257.218 98.3169 262.131 91.8834 269.115 90.9495C276.114 90.0156 282.536 94.9371 283.468 101.949C284.401 108.96 279.488 115.394 272.489 116.328C265.49 117.262 259.068 112.34 258.136 105.343L258.151 105.329ZM241.044 102.971C235.036 103.772 230.834 109.286 231.633 115.29C232.432 121.293 237.936 125.518 243.929 124.718C249.937 123.917 254.139 118.403 253.34 112.399C252.541 106.396 247.036 102.171 241.044 102.971ZM210.075 129.773C209.409 124.748 212.931 120.123 217.947 119.456C222.963 118.789 227.58 122.317 228.246 127.342C228.912 132.367 225.39 136.992 220.374 137.659C215.357 138.327 210.741 134.798 210.075 129.773ZM200.796 137.526C196.579 138.089 193.62 141.973 194.182 146.198H194.167C194.729 150.422 198.606 153.387 202.823 152.824C207.04 152.26 210 148.377 209.438 144.152C208.875 139.927 205.013 136.962 200.796 137.526ZM160.549 136.933C158.3 140.55 159.409 145.309 163.02 147.562H163.005C166.616 149.815 171.365 148.703 173.615 145.086C175.864 141.469 174.754 136.711 171.143 134.458C167.533 132.205 162.798 133.316 160.549 136.933ZM160.474 124.836C156.168 122.153 154.865 116.49 157.529 112.191C160.207 107.892 165.86 106.558 170.151 109.241C174.457 111.924 175.774 117.587 173.095 121.886C170.417 126.185 164.765 127.504 160.474 124.836ZM134.148 169.101C135.628 173.088 140.067 175.119 144.047 173.637C148.028 172.155 150.055 167.707 148.575 163.72C147.095 159.732 142.671 157.701 138.676 159.184C134.696 160.666 132.668 165.113 134.148 169.101ZM124.545 161.749C119.795 163.513 114.527 161.097 112.752 156.338C110.991 151.58 113.403 146.303 118.153 144.539C122.902 142.775 128.17 145.191 129.946 149.949C131.707 154.708 129.295 159.985 124.56 161.749H124.545ZM91.5809 137.452C93.6969 143.129 100 146.02 105.668 143.9C111.32 141.795 114.206 135.48 112.104 129.803C109.988 124.125 103.685 121.234 98.0176 123.354C92.3652 125.459 89.4797 131.774 91.5809 137.452ZM90.0706 120.198C83.4564 122.658 76.1022 119.293 73.6459 112.667C71.1896 106.041 74.5485 98.6734 81.1628 96.2127C87.7771 93.7519 95.1312 97.1169 97.5875 103.743C100.044 110.369 96.6849 117.737 90.0706 120.198ZM62.5011 80.3064C65.3569 88.0147 73.9096 91.9282 81.6041 89.0672C89.2986 86.2062 93.205 77.6381 90.3492 69.9297C87.4933 62.2214 78.9406 58.3079 71.2462 61.1689C63.5517 64.0299 59.6453 72.598 62.5011 80.3064ZM143.385 209.688C147.454 210.948 151.76 208.68 153.032 204.618V204.633C154.305 200.557 152.041 196.243 147.972 194.968C143.903 193.693 139.582 195.961 138.324 200.038C137.066 204.1 139.33 208.428 143.385 209.688ZM131.709 212.801C130.2 217.648 125.066 220.346 120.227 218.834C115.388 217.322 112.695 212.178 114.204 207.346C115.714 202.498 120.848 199.801 125.687 201.313C130.526 202.825 133.219 207.968 131.709 212.801ZM92.3488 224.052C98.1345 225.861 104.26 222.629 106.066 216.848C107.871 211.082 104.645 204.915 98.8743 203.121C93.0887 201.313 86.9627 204.544 85.1575 210.326C83.3522 216.092 86.578 222.259 92.3488 224.052ZM77.8194 214.698C75.7182 221.443 68.5564 225.208 61.8237 223.103C55.0763 220.998 51.3326 213.824 53.4338 207.079C55.535 200.334 62.6968 196.569 69.4294 198.674C76.1621 200.779 79.9205 207.953 77.8194 214.698ZM29.4474 212.149C37.2898 214.595 45.6205 210.207 48.0621 202.365C50.5036 194.509 46.1236 186.163 38.296 183.717C30.4536 181.271 22.1228 185.659 19.6813 193.501C17.2398 201.357 21.6049 209.703 29.4474 212.149ZM181.088 227.195C184.565 224.749 185.424 219.946 182.982 216.448C180.541 212.949 175.746 212.104 172.254 214.55C168.777 216.996 167.919 221.799 170.36 225.298C172.802 228.796 177.611 229.641 181.088 227.195ZM176.394 238.357C179.295 242.508 178.288 248.23 174.145 251.135C170.002 254.041 164.276 253.033 161.39 248.882C158.49 244.731 159.496 239.009 163.654 236.089C167.797 233.184 173.509 234.192 176.409 238.357H176.394ZM161.213 276.44C166.17 272.956 167.369 266.123 163.906 261.157C160.444 256.205 153.622 254.99 148.665 258.459C143.708 261.942 142.51 268.776 145.972 273.742C149.435 278.708 156.256 279.909 161.213 276.44ZM144.937 282.22C148.977 288.016 147.571 295.992 141.8 300.038C136.015 304.085 128.054 302.677 124.014 296.896C119.975 291.1 121.38 283.124 127.166 279.078C132.952 275.031 140.912 276.439 144.952 282.22H144.937ZM113.331 318.998C120.049 314.27 121.691 304.99 116.986 298.26H116.971C112.28 291.53 103.003 289.884 96.2849 294.598C89.567 299.327 87.9245 308.607 92.63 315.337C97.3354 322.067 106.613 323.712 113.331 318.998ZM217.974 208.028C218.182 203.773 214.897 200.156 210.65 199.949C206.403 199.741 202.793 203.032 202.585 207.286C202.378 211.541 205.663 215.158 209.91 215.365C214.172 215.558 217.767 212.282 217.974 208.028ZM223.923 218.567C228.984 218.804 232.875 223.118 232.638 228.173C232.387 233.242 228.096 237.141 223.05 236.904C217.989 236.667 214.098 232.353 214.334 227.298C214.571 222.228 218.877 218.33 223.923 218.567ZM244.7 253.892C244.981 247.829 240.32 242.7 234.283 242.404H234.268C228.231 242.122 223.111 246.791 222.815 252.84C222.534 258.902 227.195 264.031 233.232 264.328C239.284 264.61 244.404 259.94 244.7 253.892ZM239.312 270.332C246.356 270.673 251.801 276.661 251.461 283.717C251.12 290.788 245.142 296.229 238.099 295.888C231.056 295.547 225.61 289.558 225.951 282.487C226.291 275.431 232.269 269.976 239.327 270.317L239.312 270.332ZM249.02 317.872C249.405 309.66 243.086 302.692 234.889 302.292C226.691 301.892 219.737 308.236 219.337 316.449C218.952 324.661 225.271 331.643 233.468 332.029C241.666 332.429 248.62 326.084 249.02 317.872ZM172.044 172.703C176.055 168.286 182.861 167.945 187.271 171.947C191.68 175.949 192.021 182.798 188.025 187.215C184.015 191.633 177.209 191.974 172.784 187.957C168.375 183.954 168.049 177.106 172.044 172.703ZM188.737 153.714C184.815 154.248 182.048 157.865 182.566 161.808C183.099 165.751 186.709 168.508 190.645 167.989C194.581 167.456 197.348 163.839 196.816 159.896C196.283 155.952 192.673 153.18 188.737 153.714ZM167.725 166.432C164.352 164.327 163.331 159.895 165.417 156.515C167.518 153.135 171.943 152.098 175.316 154.203C178.69 156.308 179.726 160.74 177.625 164.12C175.523 167.5 171.099 168.537 167.725 166.432ZM152.66 177.164C154.036 180.885 158.179 182.783 161.893 181.404H161.908C165.637 180.011 167.516 175.86 166.14 172.139C164.749 168.404 160.606 166.506 156.892 167.9C153.163 169.293 151.269 173.444 152.66 177.164ZM170.151 195.176C168.967 198.971 164.942 201.09 161.154 199.904C157.366 198.719 155.25 194.686 156.434 190.892C157.618 187.097 161.643 184.977 165.431 186.163C169.219 187.349 171.335 191.381 170.151 195.176ZM184.311 207.095C187.567 204.827 188.366 200.335 186.087 197.074C183.823 193.813 179.34 193.012 176.084 195.295C172.829 197.563 172.03 202.055 174.309 205.316C176.573 208.577 181.056 209.378 184.311 207.095ZM197.318 185.599C201.284 185.792 204.347 189.172 204.155 193.13C203.962 197.103 200.603 200.171 196.638 199.978C192.672 199.786 189.609 196.421 189.802 192.448C189.994 188.475 193.353 185.407 197.318 185.599ZM205.59 169.65C202.646 166.966 198.103 167.189 195.44 170.139L195.425 170.154C192.761 173.103 192.983 177.654 195.928 180.323C198.872 182.991 203.415 182.769 206.079 179.819C208.757 176.869 208.535 172.318 205.59 169.65ZM214.898 168.982C217.754 165.824 222.622 165.587 225.774 168.448C228.926 171.309 229.162 176.186 226.307 179.344C223.451 182.501 218.583 182.738 215.431 179.877C212.279 177.016 212.042 172.139 214.898 168.982ZM250.631 169.917C246.888 166.507 241.087 166.804 237.684 170.554C234.281 174.319 234.577 180.115 238.32 183.525C242.079 186.92 247.864 186.653 251.268 182.887C254.656 179.137 254.375 173.326 250.631 169.917ZM262.646 177.698C266.715 173.206 273.64 172.865 278.109 176.942C282.592 181.004 282.918 187.941 278.863 192.433C274.794 196.924 267.884 197.265 263.4 193.189C258.917 189.127 258.591 182.189 262.646 177.698ZM305.394 190.654C300.171 185.91 292.092 186.31 287.357 191.543C282.622 196.776 283.021 204.87 288.245 209.613C293.468 214.357 301.547 213.957 306.282 208.724C311.017 203.491 310.618 195.397 305.394 190.654ZM309.184 215.292C314.703 209.199 324.099 208.74 330.166 214.254C336.247 219.783 336.706 229.196 331.187 235.289C325.682 241.382 316.286 241.841 310.205 236.327C304.123 230.797 303.664 221.384 309.184 215.292ZM216.879 150.156C212.825 148.866 208.489 151.104 207.202 155.166V155.151C205.915 159.213 208.149 163.556 212.203 164.846C216.258 166.136 220.593 163.897 221.881 159.835C223.168 155.789 220.934 151.445 216.879 150.156ZM228.573 147.103C230.112 142.27 235.261 139.602 240.085 141.129C244.909 142.671 247.572 147.829 246.033 152.662C244.494 157.494 239.345 160.163 234.521 158.636C229.697 157.094 227.034 151.936 228.573 147.103ZM267.975 136.073C262.219 134.235 256.063 137.437 254.228 143.204H254.213C252.378 148.97 255.575 155.137 261.331 156.975C267.102 158.813 273.257 155.626 275.092 149.845C276.927 144.078 273.731 137.912 267.975 136.073ZM282.46 145.531C284.591 138.801 291.783 135.066 298.5 137.215C305.233 139.35 308.947 146.554 306.802 153.284C304.671 160.014 297.479 163.735 290.762 161.6C284.044 159.451 280.33 152.261 282.46 145.531ZM330.818 148.348C323.006 145.857 314.645 150.201 312.159 158.028V158.043C309.659 165.869 313.994 174.245 321.807 176.735C329.62 179.226 337.98 174.882 340.466 167.055C342.967 159.214 338.631 150.838 330.818 148.348ZM178.585 143.189C176.321 139.587 177.386 134.828 180.982 132.546C184.577 130.278 189.327 131.345 191.606 134.947C193.885 138.549 192.805 143.308 189.209 145.591C185.613 147.873 180.863 146.791 178.585 143.189ZM189.032 108.931C184.756 111.644 183.468 117.321 186.176 121.605V121.59C188.869 125.874 194.537 127.164 198.813 124.451C203.089 121.753 204.377 116.076 201.669 111.792C198.976 107.508 193.308 106.218 189.032 108.931ZM199.715 99.4285C196.49 94.3143 198.014 87.525 203.119 84.2934C208.224 81.0618 215.001 82.5887 218.226 87.7029C221.452 92.8171 219.928 99.6064 214.823 102.838C209.718 106.07 202.956 104.543 199.715 99.4285ZM223.643 61.6142C217.68 65.3942 215.89 73.2953 219.663 79.2693V79.2545C223.436 85.2433 231.323 87.0221 237.286 83.2421C243.249 79.462 245.04 71.5609 241.266 65.5869C237.493 59.6278 229.606 57.8341 223.643 61.6142ZM248.324 64.5629C243.944 57.6105 246.016 48.4198 252.941 44.0319C259.881 39.6441 269.055 41.7194 273.45 48.6718C277.83 55.6241 275.758 64.8149 268.818 69.2027C261.878 73.5905 252.704 71.5152 248.324 64.5629ZM143.681 149.592C143.208 153.832 146.256 157.641 150.473 158.116C154.705 158.59 158.508 155.551 158.981 151.312C159.455 147.072 156.422 143.262 152.19 142.788C147.958 142.314 144.155 145.367 143.681 149.592ZM138.411 138.697C133.38 138.134 129.755 133.583 130.317 128.543C130.88 123.503 135.422 119.871 140.453 120.449C145.484 121.012 149.11 125.563 148.547 130.588C147.985 135.628 143.442 139.26 138.411 138.697ZM119.93 102.112C119.249 108.13 123.585 113.571 129.592 114.238C135.6 114.905 141.016 110.576 141.696 104.558C142.377 98.5247 138.041 93.0991 132.034 92.4321C126.026 91.765 120.596 96.0935 119.93 102.112ZM126.338 86.0434C119.324 85.2577 114.279 78.928 115.063 71.9015C115.847 64.875 122.165 59.8201 129.179 60.6058C136.193 61.3914 141.239 67.7212 140.454 74.7477C139.67 81.7741 133.352 86.829 126.338 86.0434ZM119.678 37.9851C118.761 46.153 124.635 53.5205 132.789 54.4395C140.942 55.3586 148.296 49.4736 149.213 41.3057C150.131 33.1378 144.256 25.7703 136.103 24.8513C127.95 23.9322 120.596 29.8172 119.678 37.9851ZM144.538 189.439C141.519 192.448 136.651 192.433 133.647 189.424C130.644 186.415 130.644 181.523 133.647 178.514C136.666 175.504 141.534 175.504 144.538 178.514C147.542 181.523 147.542 186.415 144.523 189.424L144.538 189.439ZM108.891 186.712C112.472 190.299 118.273 190.314 121.854 186.726C125.435 183.139 125.449 177.328 121.868 173.741C118.288 170.153 112.487 170.139 108.906 173.726C105.325 177.313 105.325 183.124 108.891 186.712ZM97.2884 178.335C93.012 182.619 86.0722 182.604 81.7959 178.32C77.5343 174.036 77.5343 167.084 81.8107 162.815C86.087 158.531 93.0268 158.545 97.3032 162.83C101.565 167.114 101.565 174.066 97.2736 178.335H97.2884ZM55.2228 163.231C60.2094 168.241 68.3034 168.256 73.29 163.26L73.2752 163.245C78.2766 158.25 78.2914 150.156 73.3048 145.146C68.3182 140.15 60.2242 140.135 55.2376 145.131C50.251 150.126 50.2362 158.22 55.2228 163.231ZM52.6928 138.461C46.8775 144.257 37.4666 144.257 31.6809 138.431C25.8805 132.605 25.8953 123.177 31.7105 117.381C37.5258 111.585 46.9219 111.585 52.7223 117.411C58.5228 123.237 58.508 132.664 52.6928 138.461ZM159.601 222.733C163.833 222.155 166.762 218.271 166.185 214.047C165.594 209.822 161.717 206.872 157.5 207.45C153.297 208.043 150.353 211.927 150.93 216.151C151.507 220.361 155.398 223.311 159.601 222.733ZM150.353 230.545C151.049 235.57 147.542 240.21 142.526 240.892C137.509 241.574 132.893 238.075 132.197 233.05C131.502 228.025 135.009 223.4 140.025 222.703C145.041 222.006 149.673 225.52 150.353 230.545ZM119.516 257.48C125.508 256.65 129.696 251.12 128.867 245.117C128.039 239.113 122.519 234.918 116.527 235.748C110.534 236.578 106.346 242.107 107.175 248.111C108.003 254.115 113.523 258.31 119.516 257.48ZM102.381 255.212C103.343 262.209 98.4596 268.672 91.4754 269.635C84.4764 270.599 78.0397 265.707 77.0779 258.71C76.1161 251.714 80.9991 245.25 87.9833 244.287C94.9675 243.323 101.419 248.215 102.381 255.212ZM57.5308 273.506C65.6544 272.379 71.3365 264.863 70.2119 256.725H70.2267C69.1021 248.572 61.6 242.88 53.4764 244.006C45.3381 245.133 39.656 252.649 40.7806 260.787C41.9052 268.94 49.4073 274.632 57.5308 273.506ZM198.592 211.733C202.292 213.838 203.579 218.552 201.463 222.258C199.362 225.964 194.656 227.254 190.972 225.149C187.273 223.044 185.985 218.33 188.087 214.624C190.188 210.918 194.893 209.628 198.592 211.748V211.733ZM205.444 246.881C207.944 242.479 206.406 236.861 202.011 234.355V234.34C197.616 231.835 192.008 233.377 189.507 237.78C187.007 242.182 188.546 247.8 192.94 250.306C197.335 252.826 202.943 251.284 205.444 246.881ZM200.47 260.311C205.723 263.306 207.557 270.006 204.568 275.269C201.579 280.531 194.891 282.369 189.638 279.375C184.385 276.38 182.55 269.68 185.539 264.418C188.528 259.155 195.217 257.317 200.47 260.311ZM197.113 304.945C200.605 298.808 198.46 290.996 192.334 287.497C186.208 283.999 178.41 286.149 174.917 292.286C171.425 298.423 173.571 306.235 179.697 309.733C185.823 313.232 193.621 311.082 197.113 304.945ZM173.926 313.973C181.058 318.049 183.544 327.136 179.49 334.281C175.42 341.427 166.35 343.917 159.218 339.84C152.085 335.779 149.6 326.677 153.669 319.532C157.738 312.387 166.809 309.896 173.941 313.973H173.926ZM226.497 189.039C224.884 185.096 220.386 183.228 216.45 184.844C212.514 186.459 210.634 190.966 212.262 194.909C213.875 198.852 218.373 200.735 222.309 199.104C226.245 197.488 228.11 192.982 226.497 189.039ZM236.368 196.035C241.043 194.108 246.4 196.332 248.338 201.031C250.262 205.715 248.028 211.082 243.352 213.023C238.676 214.951 233.319 212.712 231.396 208.028C229.472 203.344 231.692 197.977 236.368 196.035ZM270.15 219.176C267.841 213.572 261.449 210.904 255.856 213.217C250.277 215.529 247.614 221.933 249.907 227.536C252.215 233.14 258.608 235.808 264.201 233.496C269.78 231.183 272.458 224.779 270.15 219.176ZM272.25 236.356C278.775 233.658 286.233 236.771 288.926 243.308C291.619 249.845 288.497 257.331 281.986 260.014C275.461 262.712 268.003 259.599 265.31 253.062C262.617 246.525 265.724 239.053 272.25 236.356ZM301.193 275.268C298.071 267.664 289.385 264.047 281.794 267.175C274.203 270.302 270.593 279.004 273.715 286.609C276.837 294.213 285.523 297.83 293.114 294.702C300.705 291.575 304.315 282.873 301.193 275.268ZM182.373 105.98C182.373 105.98 201.772 43.661 245.29 25.413C245.428 25.4234 245.785 25.5412 246.361 25.7311C249.858 26.8847 261.427 30.7011 281.069 29.3264C248.457 35.0929 208.12 44.6839 182.373 105.995V105.98ZM213.195 113.698L213.142 113.757L213.122 113.779H213.107L213.195 113.698ZM334.798 85.6432C302.797 77.1839 262.193 68.9467 213.195 113.698C215.197 111.51 257.936 65.3902 303.961 67.069C304.081 67.1374 304.351 67.3901 304.786 67.7965C307.461 70.2989 316.366 78.6293 334.798 85.6432ZM237.936 133.982C237.936 133.982 297.967 108.589 339.976 130.098C340.058 130.212 340.199 130.562 340.427 131.126C341.808 134.551 346.368 145.86 360.1 159.998C334.649 138.77 301.311 114.103 237.95 133.982H237.936ZM345.998 202.692C317.055 165.381 251.934 162.891 251.934 162.891V162.905C317.736 171.785 337.505 208.281 351.577 238.314C345.111 219.647 345.773 207.451 345.971 203.791C346.003 203.196 346.023 202.827 345.998 202.692ZM252.451 194.746C252.451 194.746 310.485 224.438 321.095 270.48C321.06 270.611 320.89 270.93 320.617 271.443L320.617 271.444C318.911 274.651 313.175 285.435 311.21 305.153C311.047 271.978 308.428 230.53 252.466 194.761L252.451 194.746ZM269.529 321.889C279.428 275.683 239.432 224.141 239.432 224.141C274.959 280.323 259.792 318.968 245.898 349.076C256.002 332.106 265.746 324.775 268.671 322.575L268.671 322.575C269.147 322.217 269.442 321.994 269.529 321.889ZM212.885 246.273C212.885 246.273 212.896 246.327 212.915 246.433C219.065 312.535 188.065 340.05 162.072 360.55C178.79 349.998 190.804 347.901 194.384 347.276C194.958 347.176 195.315 347.113 195.44 347.06C224.318 311.451 213.564 249.972 212.915 246.433L212.9 246.273H212.885ZM121.336 337.128C164.055 317.056 180.82 253.981 180.82 253.981C157.663 316.315 117.77 327.596 85.4238 334.726C105.056 332.517 116.792 335.864 120.29 336.862C120.852 337.022 121.201 337.122 121.336 337.128ZM147.201 246.273C147.201 246.273 103.683 294.851 56.5243 293.309C56.4032 293.242 56.1281 292.987 55.6846 292.576L55.6824 292.574L55.6819 292.573L55.6817 292.573L55.6811 292.572L55.6809 292.572C52.9782 290.064 44.0447 281.774 25.6133 274.839C57.6637 283.185 98.326 291.278 147.201 246.273ZM20.124 229.908C62.1476 251.403 122.164 225.98 122.164 225.98C58.8183 245.888 25.4509 221.236 0 200.024C13.7323 214.15 18.2928 225.457 19.6736 228.881C19.9011 229.445 20.0423 229.795 20.124 229.908ZM107.735 195.512L107.637 195.506C42.1709 185.198 23.1767 148.322 9.75195 118.032C15.8252 136.794 14.9163 148.955 14.641 152.637C14.5957 153.243 14.5676 153.619 14.5906 153.757C41.9357 190.567 104.069 195.265 107.637 195.506L107.797 195.531V195.516L107.735 195.512ZM43.623 82.5892C51.9538 129.106 108.464 161.615 108.464 161.615C54.3213 123.117 53.7442 81.596 55.2091 48.4501C52.2636 68.0328 46.0107 78.5231 44.1485 81.6472L44.1484 81.6474C43.8497 82.1485 43.664 82.4601 43.623 82.5892Z" fill="url(#paint0_linear_584_22482)" fill-opacity="0.6"/>
<defs>
<linearGradient id="paint0_linear_584_22482" x1="180.05" y1="0.450073" x2="180.05" y2="360.55" gradientUnits="userSpaceOnUse">
<stop stop-color="#3DA996"/>
<stop offset="1" stop-color="#6F3DA9"/>
</linearGradient>
</defs>
</svg>
