<svg width="623" height="577" viewBox="0 0 623 577" fill="none" xmlns="http://www.w3.org/2000/svg">
<g style="mix-blend-mode:luminosity" opacity="0.2">
<path d="M221.545 195.359C220.869 190.331 224.473 185.712 229.622 185.052C234.772 184.392 239.502 187.911 240.178 192.94C240.854 197.968 237.25 202.588 232.101 203.247C226.951 203.907 222.221 200.388 221.513 195.359H221.545Z" fill="#F15F64"/>
<path d="M261.644 122.576C260.421 113.62 266.857 105.386 276.029 104.192C285.201 102.998 293.6 109.283 294.823 118.239C296.046 127.196 289.61 135.43 280.438 136.624C271.266 137.818 262.834 131.533 261.612 122.576H261.644Z" fill="#FBDB3B"/>
<path d="M296.206 87.7562C294.758 77.1027 302.417 67.2977 313.327 65.8836C324.237 64.4694 334.277 71.9488 335.725 82.6023C337.174 93.2558 329.514 103.061 318.605 104.475C307.695 105.889 297.654 98.4097 296.206 87.7562Z" fill="#8CC74C"/>
<path d="M343.096 57.0525C341.358 44.3249 350.498 32.6343 363.564 30.9373C376.598 29.2403 388.569 38.1968 390.307 50.9244C392.045 63.652 382.905 75.3426 369.839 77.0396C356.806 78.7366 344.834 69.7801 343.096 57.0525Z" fill="#65CDF0"/>
<path d="M400.766 35.9345C398.738 21.0698 409.423 7.43086 424.613 5.451C439.835 3.47115 453.802 13.9047 455.829 28.7693C457.857 43.6339 447.172 57.2729 431.95 59.2527C416.728 61.2326 402.761 50.7991 400.734 35.9659L400.766 35.9345Z" fill="#7A56A4"/>
<path d="M470.762 33.0115C468.412 15.727 480.835 -0.14321 498.535 -2.43733C516.235 -4.73144 532.487 7.3991 534.836 24.6835C537.185 41.968 524.763 57.8382 507.063 60.1323C489.363 62.4265 473.111 50.2959 470.762 33.0115Z" fill="#C1539F"/>
<path d="M225.921 201.959C221.512 199.288 220.161 193.6 222.896 189.294C225.632 184.989 231.457 183.669 235.866 186.34C240.275 189.011 241.626 194.668 238.891 199.005C236.155 203.31 230.33 204.63 225.921 201.959Z" fill="#F15F64"/>
<path d="M193.869 125.468C186.016 120.691 183.603 110.603 188.494 102.935C193.386 95.2669 203.684 92.9099 211.537 97.6867C219.389 102.464 221.803 112.551 216.911 120.219C212.019 127.887 201.689 130.244 193.837 125.468H193.869Z" fill="#FBDB3B"/>
<path d="M188.332 77.2913C178.968 71.6031 176.136 59.5983 181.928 50.4847C187.753 41.3711 200.047 38.5427 209.379 44.2309C218.744 49.919 221.609 61.9239 215.784 71.0375C209.959 80.1511 197.665 82.948 188.332 77.2913Z" fill="#8CC74C"/>
<path d="M193.836 22.4206C182.668 15.6326 179.257 1.3022 186.176 -9.60271C193.128 -20.5076 207.802 -23.8388 218.97 -17.0822C230.137 -10.2941 233.58 4.03627 226.629 14.9412C219.678 25.8461 205.003 29.1773 193.836 22.4206Z" fill="#65CDF0"/>
<path d="M234.16 202.776C229.3 204.536 223.862 202.116 222.059 197.371C220.257 192.625 222.735 187.314 227.595 185.554C232.454 183.794 237.893 186.214 239.695 190.96C241.497 195.705 239.019 201.016 234.16 202.776Z" fill="#F15F64"/>
<path d="M152.611 180.746C143.954 183.889 134.299 179.583 131.081 171.13C127.863 162.676 132.272 153.248 140.929 150.106C149.618 146.963 159.24 151.268 162.458 159.722C165.677 168.176 161.268 177.603 152.611 180.746Z" fill="#FBDB3B"/>
<path d="M110.196 155.542C99.8655 159.282 88.4087 154.16 84.5468 144.072C80.7172 133.984 85.9629 122.796 96.2933 119.056C106.624 115.317 118.08 120.439 121.942 130.527C125.772 140.615 120.526 151.803 110.228 155.542H110.196Z" fill="#8CC74C"/>
<path d="M69.1315 117.705C56.8058 122.199 43.0963 116.071 38.4943 104.035C33.9245 91.9985 40.1999 78.6109 52.4934 74.1484C64.8191 69.6544 78.5287 75.7825 83.1307 87.8188C87.7005 99.855 81.425 113.243 69.1315 117.705Z" fill="#65CDF0"/>
<path d="M35.2116 67.4549C20.8262 72.6716 4.83179 65.5379 -0.510414 51.4904C-5.85262 37.4428 1.45268 21.824 15.838 16.6072C30.2233 11.3905 46.2178 18.5242 51.56 32.5717C56.9022 46.6193 49.5969 62.2381 35.2116 67.4549Z" fill="#7A56A4"/>
<path d="M16.8034 1.45942C0.0688133 7.52468 -18.5324 -0.771847 -24.7435 -17.1135C-30.9546 -33.4551 -22.4586 -51.6195 -5.72394 -57.6848C11.0107 -63.75 29.6118 -55.4535 35.823 -39.1119C42.0341 -22.7702 33.538 -4.60585 16.8034 1.45942Z" fill="#C1539F"/>
<path d="M239.855 196.899C238.311 201.739 233.033 204.442 228.077 202.933C223.121 201.425 220.353 196.271 221.898 191.431C223.443 186.591 228.72 183.889 233.676 185.397C238.632 186.906 241.4 192.06 239.855 196.899Z" fill="#F15F64"/>
<path d="M172.146 246.427C169.378 255.038 160.013 259.846 151.163 257.175C142.345 254.504 137.422 245.327 140.157 236.716C142.893 228.074 152.29 223.266 161.14 225.969C169.99 228.671 174.914 237.816 172.146 246.459V246.427Z" fill="#FBDB3B"/>
<path d="M125.77 263.774C122.488 274.051 111.321 279.77 100.797 276.565C90.2737 273.359 84.4165 262.455 87.6991 252.21C90.9817 241.933 102.149 236.214 112.672 239.419C123.196 242.625 129.053 253.53 125.77 263.774Z" fill="#8CC74C"/>
<path d="M69.9997 272.354C66.0735 284.61 52.7502 291.461 40.1671 287.627C27.6161 283.824 20.6004 270.751 24.5266 258.526C28.4528 246.27 41.7762 239.419 54.3593 243.253C66.9103 247.056 73.9259 260.129 69.9997 272.354Z" fill="#65CDF0"/>
<path d="M8.56376 267.797C3.99393 282.096 -11.5821 290.078 -26.2249 285.616C-40.8999 281.153 -49.0419 265.943 -44.4721 251.644C-39.9023 237.345 -24.3262 229.363 -9.68341 233.825C4.95938 238.288 13.1336 253.498 8.56376 267.797Z" fill="#7A56A4"/>
<path d="M238.6 188.886C241.561 193.034 240.531 198.785 236.283 201.676C232.035 204.599 226.178 203.562 223.185 199.413C220.192 195.265 221.254 189.514 225.502 186.623C229.75 183.732 235.64 184.737 238.6 188.886Z" fill="#F15F64"/>
<path d="M237.281 271.505C242.591 278.922 240.725 289.104 233.162 294.289C225.599 299.475 215.14 297.683 209.83 290.267C204.52 282.85 206.387 272.668 213.949 267.483C221.544 262.297 231.971 264.089 237.281 271.505Z" fill="#FBDB3B"/>
<path d="M222.961 317.953C229.268 326.753 227.08 338.883 218.069 345.043C209.058 351.202 196.604 349.065 190.328 340.266C184.02 331.467 186.209 319.336 195.252 313.145C204.263 306.986 216.685 309.123 222.993 317.953H222.961Z" fill="#8CC74C"/>
<path d="M195.799 366.287C203.329 376.815 200.723 391.302 189.942 398.687C179.161 406.041 164.325 403.495 156.794 392.968C149.264 382.44 151.87 367.952 162.651 360.567C173.432 353.213 188.268 355.79 195.799 366.287Z" fill="#65CDF0"/>
<path d="M154.542 410.944C163.328 423.231 160.271 440.139 147.72 448.718C135.136 457.297 117.823 454.312 109.037 442.056C100.251 429.768 103.308 412.861 115.892 404.281C128.475 395.702 145.789 398.687 154.574 410.944H154.542Z" fill="#7A56A4"/>
<path d="M93.7493 444.947C103.983 459.214 100.411 478.887 85.8004 488.912C71.1898 498.906 51.0117 495.417 40.7778 481.15C30.544 466.882 34.1162 447.209 48.7268 437.184C63.3374 427.191 83.5155 430.679 93.7171 444.947H93.7493Z" fill="#C1539F"/>
<path d="M231.327 184.957C236.508 185.209 240.531 189.514 240.274 194.574C240.016 199.634 235.607 203.562 230.426 203.31C225.245 203.059 221.222 198.754 221.479 193.694C221.737 188.634 226.146 184.706 231.327 184.957Z" fill="#F15F64"/>
<path d="M297.463 236.528C306.699 236.968 313.843 244.636 313.393 253.655C312.942 262.674 305.122 269.62 295.854 269.211C286.617 268.771 279.473 261.103 279.924 252.084C280.374 243.064 288.226 236.088 297.463 236.528Z" fill="#FBDB3B"/>
<path d="M326.329 275.999C337.336 276.502 345.799 285.647 345.284 296.364C344.737 307.111 335.405 315.376 324.431 314.874C313.424 314.371 304.961 305.226 305.475 294.509C305.99 283.762 315.355 275.496 326.329 275.999Z" fill="#8CC74C"/>
<path d="M348.857 326.533C361.987 327.161 372.124 338.035 371.513 350.888C370.869 363.71 359.734 373.609 346.572 373.012C333.442 372.384 323.304 361.51 323.916 348.657C324.56 335.835 335.695 325.936 348.825 326.533H348.857Z" fill="#65CDF0"/>
<path d="M359.798 385.74C375.116 386.463 386.959 399.159 386.219 414.118C385.479 429.108 372.477 440.641 357.159 439.919C341.84 439.196 329.997 426.5 330.737 411.509C331.478 396.55 344.479 384.986 359.83 385.708L359.798 385.74Z" fill="#7A56A4"/>
<path d="M350.176 453.495C368.005 454.343 381.747 469.113 380.91 486.524C380.041 503.934 364.916 517.384 347.087 516.536C329.258 515.719 315.516 500.917 316.353 483.507C317.222 466.097 332.348 452.646 350.176 453.495Z" fill="#C1539F"/>
<path d="M213.5 178.766C222.221 169.401 237.025 168.678 246.615 177.163C256.205 185.649 256.945 200.167 248.256 209.533C239.535 218.898 224.731 219.62 215.109 211.104C205.518 202.619 204.81 188.1 213.5 178.766Z" fill="#F15F64"/>
<path d="M236.382 155.668C235.255 147.309 241.273 139.641 249.802 138.51C258.362 137.378 266.214 143.255 267.373 151.614C268.531 159.974 262.513 167.642 253.953 168.773C245.393 169.873 237.54 164.028 236.382 155.668Z" fill="#FAA44B"/>
<path d="M204.102 165.473C196.765 161.01 194.544 151.614 199.082 144.449C203.652 137.284 213.274 135.084 220.611 139.546C227.949 144.009 230.202 153.405 225.632 160.57C221.062 167.736 211.44 169.936 204.102 165.473Z" fill="#FAA44B"/>
<path d="M191.423 197.214C183.345 200.136 174.334 196.114 171.341 188.226C168.316 180.338 172.435 171.538 180.545 168.584C188.623 165.63 197.634 169.653 200.659 177.572C203.652 185.46 199.565 194.26 191.455 197.214H191.423Z" fill="#FAA44B"/>
<path d="M209.38 226.409C206.805 234.454 198.052 238.948 189.813 236.434C181.575 233.92 176.973 225.372 179.547 217.327C182.122 209.281 190.875 204.788 199.114 207.302C207.352 209.816 211.954 218.364 209.38 226.409Z" fill="#FAA44B"/>
<path d="M244.041 230.431C248.997 237.345 247.259 246.867 240.179 251.675C233.099 256.515 223.348 254.818 218.424 247.904C213.468 240.99 215.206 231.468 222.286 226.66C229.366 221.82 239.117 223.517 244.041 230.431Z" fill="#FAA44B"/>
<path d="M268.465 206.107C277.09 206.516 283.752 213.681 283.333 222.072C282.915 230.494 275.61 236.999 266.985 236.591C258.36 236.182 251.698 229.048 252.117 220.626C252.535 212.204 259.84 205.699 268.465 206.107Z" fill="#FAA44B"/>
<path d="M264.378 173.33C270.171 167.076 280.05 166.604 286.455 172.292C292.859 177.949 293.342 187.597 287.517 193.851C281.724 200.105 271.844 200.576 265.44 194.919C259.036 189.263 258.553 179.615 264.346 173.361L264.378 173.33Z" fill="#FAA44B"/>
<path d="M306.698 170.878C312.91 164.185 323.497 163.682 330.352 169.747C337.207 175.812 337.722 186.152 331.511 192.845C325.3 199.539 314.712 200.042 307.857 193.977C301.002 187.911 300.487 177.572 306.698 170.878Z" fill="#FBDB3B"/>
<path d="M356.259 174.21C363.66 166.259 376.276 165.63 384.418 172.858C392.56 180.086 393.171 192.405 385.802 200.356C378.4 208.338 365.817 208.904 357.642 201.708C349.5 194.479 348.857 182.192 356.259 174.21Z" fill="#8CC74C"/>
<path d="M410.549 189.357C419.399 179.835 434.46 179.112 444.179 187.754C453.93 196.365 454.638 211.072 445.82 220.595C436.97 230.117 421.941 230.84 412.19 222.197C402.439 213.587 401.731 198.879 410.549 189.357Z" fill="#65CDF0"/>
<path d="M464.293 218.709C474.591 207.616 492.162 206.767 503.523 216.824C514.883 226.88 515.752 244.039 505.454 255.132C495.155 266.226 477.584 267.074 466.224 257.018C454.864 246.962 453.995 229.803 464.293 218.709Z" fill="#7A56A4"/>
<path d="M511.761 269.054C523.765 256.138 544.2 255.164 557.395 266.854C570.622 278.576 571.619 298.532 559.615 311.448C547.644 324.364 527.208 325.338 513.981 313.648C500.755 301.926 499.757 281.97 511.761 269.054Z" fill="#C1539F"/>
<path d="M289.964 141.589C292.764 132.978 302.193 128.233 311.011 130.967C319.829 133.701 324.688 142.909 321.888 151.488C319.088 160.099 309.659 164.845 300.841 162.11C292.023 159.376 287.164 150.169 289.964 141.558V141.589Z" fill="#FBDB3B"/>
<path d="M336.433 124.493C339.78 114.248 350.98 108.591 361.471 111.828C371.962 115.097 377.755 126.033 374.408 136.278C371.061 146.523 359.862 152.18 349.371 148.943C338.879 145.674 333.086 134.738 336.433 124.493Z" fill="#8CC74C"/>
<path d="M392.238 116.228C396.229 104.003 409.617 97.2154 422.135 101.112C434.654 105.009 441.605 118.082 437.615 130.307C433.624 142.563 420.237 149.32 407.686 145.423C395.167 141.526 388.216 128.453 392.206 116.228H392.238Z" fill="#65CDF0"/>
<path d="M453.641 121.162C458.275 106.895 473.915 98.9752 488.526 103.532C503.169 108.057 511.246 123.331 506.58 137.598C501.946 151.866 486.305 159.754 471.695 155.228C457.084 150.671 449.007 135.43 453.641 121.162Z" fill="#7A56A4"/>
<path d="M518.231 147.655C523.637 131.061 541.82 121.854 558.812 127.133C575.804 132.413 585.233 150.169 579.795 166.793C574.388 183.386 556.205 192.594 539.213 187.314C522.221 182.035 512.792 164.279 518.231 147.686V147.655Z" fill="#C1539F"/>
<path d="M227.724 116.197C222.8 108.56 225.117 98.4724 232.937 93.6327C240.757 88.8245 251.088 91.0872 256.044 98.7238C261 106.36 258.651 116.448 250.83 121.288C243.01 126.127 232.68 123.833 227.724 116.197Z" fill="#FBDB3B"/>
<path d="M244.232 70.44C238.343 61.3578 241.143 49.3215 250.443 43.5705C259.744 37.8195 272.07 40.5536 277.927 49.6358C283.816 58.718 281.016 70.7542 271.716 76.4738C262.415 82.2248 250.089 79.4907 244.232 70.4085V70.44Z" fill="#8CC74C"/>
<path d="M273.679 23.4266C266.663 12.5846 269.978 -1.80866 281.081 -8.65958C292.183 -15.5105 306.923 -12.2736 313.938 -1.43155C320.954 9.41051 317.639 23.8037 306.537 30.6546C295.434 37.5056 280.727 34.2687 273.679 23.4266Z" fill="#65CDF0"/>
<path d="M166.579 147.843C157.407 146.837 150.777 138.761 151.807 129.773C152.837 120.816 161.108 114.343 170.312 115.348C179.516 116.354 186.113 124.431 185.083 133.418C184.053 142.406 175.783 148.849 166.579 147.843Z" fill="#FBDB3B"/>
<path d="M140.349 106.675C129.407 105.481 121.522 95.8327 122.745 85.1478C123.968 74.4629 133.848 66.7634 144.79 67.9891C155.732 69.1833 163.616 78.8311 162.393 89.4846C161.17 100.17 151.291 107.869 140.349 106.675Z" fill="#8CC74C"/>
<path d="M121.169 54.8215C108.103 53.4073 98.6736 41.8739 100.154 29.1148C101.602 16.3558 113.413 7.17931 126.479 8.59349C139.545 10.0077 148.974 21.5097 147.494 34.3002C146.013 47.0592 134.235 56.2357 121.169 54.8215Z" fill="#65CDF0"/>
<path d="M153.672 214.247C147.107 220.626 136.519 220.595 129.986 214.215C123.453 207.836 123.453 197.465 129.986 191.085C136.551 184.706 147.139 184.706 153.672 191.085C160.205 197.465 160.205 207.836 153.64 214.215L153.672 214.247Z" fill="#FBDB3B"/>
<path d="M104.338 208.496C96.5502 216.101 83.9349 216.069 76.1469 208.464C68.391 200.859 68.391 188.54 76.179 180.935C83.9671 173.33 96.5824 173.361 104.37 180.966C112.158 188.571 112.126 200.89 104.338 208.496Z" fill="#8CC74C"/>
<path d="M50.9162 190.708C41.6156 199.791 26.5223 199.759 17.2217 190.677C7.95329 181.595 7.9533 166.856 17.2539 157.805C26.5545 148.723 41.6478 148.754 50.9484 157.837C60.2168 166.919 60.2168 181.658 50.884 190.708H50.9162Z" fill="#65CDF0"/>
<path d="M-1.28275 158.748C-12.1281 169.338 -29.7316 169.307 -40.5769 158.685C-51.4222 148.063 -51.39 130.904 -40.5447 120.314C-29.6994 109.723 -12.0959 109.754 -1.25056 120.345C9.59476 130.967 9.56258 148.126 -1.31492 158.716L-1.28275 158.748Z" fill="#7A56A4"/>
<path d="M200.756 266.414C202.011 275.371 195.639 283.604 186.435 284.83C177.295 286.056 168.831 279.802 167.576 270.877C166.321 261.92 172.725 253.687 181.865 252.429C191.037 251.204 199.468 257.458 200.756 266.414Z" fill="#FBDB3B"/>
<path d="M166.32 301.392C167.832 312.045 160.205 321.882 149.295 323.327C138.386 324.773 128.345 317.356 126.832 306.703C125.32 296.049 132.947 286.244 143.857 284.767C154.766 283.29 164.839 290.738 166.32 301.392Z" fill="#8CC74C"/>
<path d="M119.593 332.284C121.395 345.011 112.287 356.733 99.2536 358.493C86.22 360.253 74.2161 351.359 72.4139 338.632C70.6117 325.904 79.7192 314.182 92.7529 312.422C105.787 310.662 117.79 319.556 119.593 332.284Z" fill="#65CDF0"/>
<path d="M61.9869 353.685C64.0787 368.518 53.4587 382.22 38.2688 384.263C23.0467 386.305 9.04759 375.935 6.95576 361.102C4.86394 346.268 15.484 332.567 30.6739 330.524C45.8637 328.481 59.8951 338.852 61.9869 353.685Z" fill="#7A56A4"/>
<path d="M271.234 261.512C279.28 265.975 282.08 275.968 277.478 283.825C272.908 291.681 262.674 294.415 254.661 289.953C246.615 285.49 243.815 275.497 248.385 267.64C252.955 259.784 263.189 257.049 271.234 261.543V261.512Z" fill="#FBDB3B"/>
<path d="M278.667 309.468C288.225 314.779 291.572 326.69 286.133 336.023C280.695 345.357 268.498 348.625 258.94 343.283C249.382 337.972 246.035 326.061 251.473 316.727C256.912 307.394 269.109 304.126 278.667 309.437V309.468Z" fill="#8CC74C"/>
<path d="M275.321 364.495C286.746 370.844 290.736 385.048 284.236 396.205C277.735 407.361 263.189 411.258 251.764 404.91C240.34 398.562 236.349 384.357 242.85 373.201C249.35 362.044 263.897 358.147 275.321 364.495Z" fill="#65CDF0"/>
<path d="M257.621 422.131C270.944 429.548 275.611 446.11 268.016 459.12C260.421 472.131 243.461 476.687 230.137 469.271C216.814 461.854 212.148 445.293 219.743 432.282C227.338 419.272 244.297 414.715 257.621 422.131Z" fill="#7A56A4"/>
<path d="M217.586 478.259C233.097 486.901 238.504 506.165 229.686 521.313C220.836 536.46 201.109 541.74 185.597 533.097C170.085 524.487 164.679 505.191 173.529 490.043C182.379 474.896 202.106 469.616 217.618 478.259H217.586Z" fill="#C1539F"/>
<path d="M310.077 204.504C318.637 201.079 328.42 205.039 331.928 213.398C335.436 221.757 331.381 231.311 322.821 234.737C314.26 238.193 304.477 234.202 300.969 225.843C297.429 217.484 301.516 207.93 310.077 204.504Z" fill="#FBDB3B"/>
<path d="M353.394 228.231C363.564 224.146 375.214 228.86 379.429 238.822C383.613 248.753 378.754 260.129 368.584 264.246C358.415 268.331 346.765 263.586 342.581 253.655C338.397 243.724 343.225 232.348 353.394 228.231Z" fill="#8CC74C"/>
<path d="M395.777 264.654C407.942 259.752 421.845 265.409 426.865 277.288C431.885 289.167 426.061 302.743 413.928 307.645C401.763 312.548 387.861 306.891 382.84 295.012C377.852 283.133 383.645 269.557 395.777 264.654Z" fill="#65CDF0"/>
<path d="M431.436 313.711C445.628 307.991 461.848 314.591 467.705 328.45C473.562 342.309 466.772 358.179 452.611 363.867C438.419 369.587 422.2 362.987 416.342 349.128C410.485 335.269 417.243 319.43 431.436 313.711Z" fill="#7A56A4"/>
<path d="M452.192 379.046C468.702 372.415 487.592 380.083 494.383 396.205C501.173 412.326 493.321 430.774 476.811 437.405C460.302 444.035 441.411 436.367 434.621 420.246C427.831 404.124 435.683 385.677 452.192 379.046Z" fill="#C1539F"/>
<path d="M235.961 37.3167C235.961 37.3167 278.152 -94.7992 372.799 -133.485C374.923 -133.328 400.862 -121.794 450.615 -125.188C379.686 -112.964 291.958 -92.6308 235.961 37.3482V37.3167Z" fill="#7A56A4"/>
<path d="M302.835 53.8474C302.835 53.8474 397.869 -48.8221 500.4 -45.1767C502.267 -44.1396 520.868 -23.084 567.468 -5.79958C497.826 -23.744 409.454 -41.2169 302.803 53.8474H302.835Z" fill="#65CDF0"/>
<path d="M356.806 96.6813C356.806 96.6813 487.368 42.8481 578.733 88.4476C579.988 90.1446 587.712 116.92 622.5 151.834C567.147 106.832 494.641 54.5387 356.838 96.6813H356.806Z" fill="#8CC74C"/>
<path d="M387.25 157.962C387.25 157.962 528.882 163.242 591.83 242.342C592.216 244.385 587.614 271.851 603.963 317.859C573.358 254.19 530.363 176.818 387.25 157.994V157.962Z" fill="#FBDB3B"/>
<path d="M388.375 225.497C388.375 225.497 514.593 288.444 537.668 386.054C537.12 388.065 521.126 411.069 516.17 459.56C515.816 389.228 510.12 301.36 388.408 225.529L388.375 225.497Z" fill="#FAA44B"/>
<path d="M360.055 287.815C360.055 287.815 447.043 397.084 425.513 495.04C424.162 496.643 399.671 510.847 374.119 552.676C404.338 488.849 437.324 406.921 360.055 287.815Z" fill="#F15F64"/>
<path d="M302.321 334.735C302.321 334.735 329.065 470.653 264.379 548.402C262.416 549.219 233.999 551.042 191.809 577C248.384 533.506 315.87 475.116 302.354 334.735H302.321Z" fill="#C1539F"/>
<path d="M232.583 351.077C232.583 351.077 196.121 484.795 103.212 527.346C101.088 527.252 74.6662 516.819 25.106 522.255C95.4557 507.139 182.218 483.224 232.583 351.077Z" fill="#7A56A4"/>
<path d="M159.465 334.735C159.465 334.735 64.8179 437.719 -37.746 434.45C-39.6126 433.445 -58.2781 412.42 -104.974 395.293C-35.268 412.986 53.168 430.145 159.465 334.735Z" fill="#65CDF0"/>
<path d="M105.014 291.712C105.014 291.712 -25.5165 345.608 -116.913 300.04C-118.168 298.343 -125.892 271.568 -160.681 236.685C-105.328 281.656 -32.7574 333.918 105.014 291.712Z" fill="#8CC74C"/>
<path d="M73.7645 227.131C73.7645 227.131 -67.7074 218.96 -128.95 138.603C-129.304 136.529 -124.09 109.188 -139.473 62.8662C-110.252 127.133 -68.8981 205.384 73.7645 227.163V227.131Z" fill="#FBDB3B"/>
<path d="M75.2127 155.259C75.2127 155.259 -47.6902 86.3418 -65.8086 -12.2738C-65.165 -14.2536 -48.0441 -36.472 -40.6101 -84.6484C-43.7961 -14.3794 -42.541 73.6455 75.2127 155.259Z" fill="#FAA44B"/>
<path d="M107.138 94.0412C107.138 94.0412 26.168 -19.5332 52.9112 -116.263C54.3594 -117.803 79.5579 -130.751 107.331 -171.196C73.7008 -109.004 36.3375 -28.8668 107.106 94.0412H107.138Z" fill="#F15F64"/>
<path d="M166.513 50.3581C166.513 50.3581 146.56 -86.6603 215.043 -161.266C217.038 -162.02 245.519 -162.46 288.965 -186.407C230.265 -145.647 159.98 -90.5258 166.513 50.3266V50.3581Z" fill="#C1539F"/>
</g>
</svg>
