<svg width="802" height="127" viewBox="0 0 802 127" fill="none" xmlns="http://www.w3.org/2000/svg">
<path d="M61.561 127.992V128.622H62.191H74.5074H75.1374V127.992V37.4345C75.1374 25.628 71.9909 16.5075 65.6309 10.1755C59.2646 3.81357 49.706 0.69959 37.3892 0.69959C25.0676 0.69959 15.6589 3.83954 9.22356 10.1721C2.78761 16.5053 -0.38293 25.699 -0.38293 37.5996V127.992V128.622H0.24707H12.5634H13.1934V127.992V71.7405H61.561V127.992ZM56.4904 19.9309L56.4926 19.9339C58.3866 22.4912 59.6823 25.517 60.4395 29.0508C61.1777 32.6097 61.561 36.6217 61.561 41.0427V60.5287H13.1934V41.0427C13.1934 36.5946 13.5531 32.6078 14.3144 29.0532C15.0722 25.5153 16.3458 22.4852 18.1719 19.9247C19.9847 17.3828 22.4282 15.4235 25.5703 14.0267L25.5719 14.026C28.6778 12.6349 32.5917 11.935 37.3651 11.935C42.1391 11.935 46.027 12.6351 49.0826 14.0245C52.1561 15.4221 54.6275 17.3841 56.4904 19.9309Z" stroke="white" stroke-opacity="0.3" stroke-width="1.26"/>
<path d="M218.867 127.996V128.148L218.937 128.284L218.961 128.331L219.136 128.673H219.521H230.968H231.598V128.043V39.5378V38.9078H230.968H219.521H218.891V39.5378V88.8491C218.891 93.0328 218.297 97.0038 217.156 100.788C215.993 104.562 214.29 107.861 212.002 110.717C209.718 113.569 206.868 115.87 203.443 117.6C200.044 119.317 196.063 120.197 191.459 120.197C183.276 120.197 177.35 117.809 173.521 113.118L173.52 113.117C169.648 108.396 167.698 102.274 167.698 94.6975V39.5378V38.9078H167.068H155.621H154.991V39.5378V88.8491C154.991 93.0326 154.397 97.0034 153.256 100.787C152.093 104.562 150.39 107.861 148.102 110.717C145.818 113.569 142.968 115.87 139.543 117.6C136.144 119.317 132.163 120.197 127.559 120.197C119.376 120.197 113.45 117.809 109.621 113.118L109.62 113.117C105.748 108.396 103.798 102.274 103.798 94.6975V39.5378V38.9078H103.168H91.7212H91.0912V39.5378V98.8245C91.0912 108.577 93.9597 116.37 99.804 122.125C105.649 127.881 113.647 130.725 123.744 130.725C132.294 130.725 139.432 128.744 145.139 124.763L145.14 124.762C150.322 121.126 154.12 115.833 156.554 108.911C158.23 115.321 161.539 120.459 166.489 124.296C172.009 128.575 179.085 130.701 187.644 130.701C195.254 130.701 201.94 128.956 207.679 125.444C212.588 122.44 216.32 118.126 218.867 112.527V127.996Z" stroke="white" stroke-opacity="0.3" stroke-width="1.26"/>
<path d="M389.516 128.625H390.791H402.171H403.431L402.675 127.617L369.705 83.6606L402.674 39.8687L403.434 38.8597H402.171H389.492H389.182L388.993 39.1057L363.026 72.8696V4.25732V3.62732H362.396H351.143H350.513V4.25732V127.995V128.625H351.143H362.59H363.22V127.995V94.6246L389.016 128.378L389.492 128.014V128.625H389.516Z" stroke="white" stroke-opacity="0.3" stroke-width="1.26"/>
<path d="M478.975 111.667L479.006 111.697L479.399 110.951C481.614 106.745 483.01 101.974 483.598 96.6233L483.674 95.9246H482.971H472.056H471.483L471.428 96.4948C471.073 100.223 470.15 103.542 468.667 106.508C467.182 109.477 465.229 111.98 462.83 114.047C460.429 116.115 457.624 117.729 454.404 118.908C451.172 120.083 447.672 120.663 443.873 120.663C439.378 120.663 435.381 119.92 431.895 118.471C428.394 117.015 425.399 115.01 422.951 112.504L422.951 112.504C420.469 109.965 418.48 107.031 416.914 103.648C415.415 100.411 414.415 96.9155 413.937 93.1593L483.158 68.5898L483.631 68.4217L483.573 67.9225C482.985 62.921 481.585 58.4741 479.363 54.6169C477.15 50.7747 474.321 47.5067 470.926 44.8159C467.528 42.1235 463.619 40.0843 459.204 38.6951C454.793 37.3071 450.164 36.6144 445.298 36.6144C438.076 36.6144 431.68 37.8773 426.124 40.4458C420.588 43.0051 415.948 46.4792 412.214 50.9176C408.487 55.3473 405.672 60.514 403.741 66.4329C401.811 72.3489 400.86 78.5939 400.86 85.1878C400.86 91.455 401.812 97.3273 403.745 102.847C405.678 108.367 408.471 113.203 412.128 117.325C415.79 121.452 420.308 124.711 425.673 127.104L425.675 127.104C431.054 129.479 437.058 130.672 443.704 130.672C449.053 130.672 454.049 129.909 458.686 128.327C463.343 126.748 467.397 124.494 470.866 121.587C474.132 118.85 476.828 115.542 478.975 111.667ZM461.544 51.4334L461.709 51.5523H461.756C465.91 54.6008 468.746 58.7989 470.257 64.1796L413.567 84.4817V82.8122C413.663 77.938 414.356 73.3269 415.642 68.9766L415.643 68.9735C416.902 64.6359 418.847 60.7941 421.427 57.4886L421.429 57.4869C423.999 54.1708 427.255 51.5419 431.231 49.5773C435.16 47.6477 439.915 46.6471 445.467 46.6471C451.802 46.6471 457.151 48.2671 461.544 51.4334Z" stroke="white" stroke-opacity="0.3" stroke-width="1.26"/>
<path d="M563.028 128.62H563.658H574.45H575.08V127.99V68.7036C575.08 58.9478 572.161 51.1335 566.272 45.3097C560.381 39.4847 552.407 36.6144 542.428 36.6144C534.697 36.6144 527.985 38.3834 522.291 41.9456C517.395 45.0086 513.638 49.3969 511.011 55.053V39.4847V38.8547H510.381H499.127H498.497V39.4847V127.99V128.62H499.127H510.574H511.204V127.99V78.679C511.204 74.4924 511.776 70.5226 512.939 66.7429L512.941 66.7395C514.078 62.9663 515.782 59.6651 518.025 56.8059C520.26 53.9577 523.084 51.6577 526.53 49.929L526.532 49.9282C529.928 48.2126 534.005 47.331 538.733 47.331C546.82 47.331 552.724 49.6955 556.553 54.3192C560.423 58.9916 562.398 65.1582 562.398 72.8305V127.99H563.003V128.62H563.028Z" stroke="white" stroke-opacity="0.3" stroke-width="1.26"/>
<path d="M592.724 2.98749L592.724 2.98748L592.721 2.9902C590.839 4.54715 589.86 6.58744 589.86 9.06468C589.86 11.5378 590.812 13.5814 592.724 15.1419C594.599 16.6718 596.744 17.4298 599.112 17.4298C601.479 17.4298 603.645 16.6722 605.565 15.1471C607.523 13.5921 608.532 11.5493 608.532 9.06468C608.532 6.58009 607.523 4.53724 605.565 2.98227C603.646 1.4577 601.504 0.69959 599.112 0.69959C596.719 0.69959 594.599 1.45811 592.724 2.98749ZM592.831 127.992V128.622H593.461H604.908H605.538V127.992V39.4862V38.8562H604.908H593.461H592.831V39.4862V127.992Z" stroke="white" stroke-opacity="0.3" stroke-width="1.26"/>
<path d="M687.815 128.62H688.445H699.214H699.844V127.99V68.7036C699.844 58.9491 696.926 51.1106 691.035 45.3097C685.144 39.4847 677.171 36.6144 667.191 36.6144C659.461 36.6144 652.748 38.3834 647.054 41.9456L647.053 41.9463C642.179 45.0091 638.425 49.397 635.799 55.0529V39.4847V38.8547H635.169H623.915H623.285V39.4847V127.99V128.62H623.915H635.362H635.992V127.99V78.679C635.992 74.4924 636.563 70.5226 637.727 66.7429C638.89 62.9648 640.571 59.6632 642.813 56.8059C645.047 53.9577 647.871 51.6577 651.318 49.929L651.319 49.9282C654.716 48.2126 658.792 47.331 663.52 47.331C671.607 47.331 677.511 49.6955 681.341 54.3192C685.211 58.9916 687.185 65.1582 687.185 72.8305V127.99H687.767V128.62H687.815Z" stroke="white" stroke-opacity="0.3" stroke-width="1.26"/>
<path d="M798.724 144.532L798.724 144.531C800.255 139.906 801.035 134.799 801.05 129.193H801.05V129.028V39.4847V38.8547H800.42H788.973H788.343V39.4847V49.6346C785.354 45.56 781.447 42.4401 776.65 40.2782C771.229 37.8346 765.441 36.6144 759.245 36.6144C752.024 36.6144 745.58 37.8772 739.977 40.4449C734.394 43.0036 729.704 46.4771 725.945 50.916C722.193 55.3465 719.377 60.5145 717.47 66.4352L717.47 66.4374C715.589 72.3517 714.639 78.8309 714.639 85.1878C714.639 91.5514 715.64 97.4979 717.672 103.022C719.701 108.537 722.542 113.371 726.246 117.492C729.932 121.619 734.451 124.854 739.745 127.176C745.052 129.503 751.032 130.672 757.676 130.672C764.785 130.672 771.117 129.288 776.605 126.476C781.456 124.012 785.447 120.623 788.537 116.312V129.712C788.537 138.748 786.106 145.718 781.324 150.663C776.554 155.595 769.45 158.112 759.945 158.112C756.59 158.112 753.408 157.717 750.422 156.93C747.447 156.146 744.816 154.928 742.544 153.258L742.542 153.257C740.25 151.589 738.377 149.487 736.897 146.919L736.896 146.917C735.432 144.398 734.584 141.383 734.347 137.923L734.307 137.336H733.719H722.465H721.791L721.837 138.009C722.204 143.365 723.48 147.901 725.717 151.615C727.939 155.304 730.832 158.298 734.366 160.591C737.889 162.876 741.897 164.507 746.359 165.489C750.801 166.466 755.459 166.966 760.308 166.966C767.386 166.966 773.545 166.063 778.723 164.266L778.726 164.265C783.894 162.447 788.135 159.902 791.45 156.543L791.451 156.543C794.733 153.217 797.174 149.194 798.724 144.532ZM788.537 67.9965L788.368 96.5273V96.5311C788.368 100.325 787.521 103.685 785.887 106.625C784.237 109.594 782.095 112.1 779.456 114.17C776.816 116.242 773.744 117.837 770.233 118.972C766.722 120.107 763.117 120.663 759.438 120.663C754.003 120.663 749.316 119.732 745.359 117.892C741.382 116.042 738.052 113.503 735.359 110.321C732.666 107.137 730.652 103.371 729.322 99.0348C727.99 94.6893 727.321 89.9647 727.321 85.2114C727.321 80.4516 727.895 75.7397 729.065 71.098L729.066 71.095C730.206 66.4779 732.105 62.3801 734.758 58.7712C737.4 55.177 740.873 52.2663 745.191 50.019C749.476 47.7892 754.755 46.6471 761.008 46.6471C764.092 46.6471 767.284 47.2218 770.56 48.3346C773.842 49.4727 776.854 50.9793 779.552 52.8979C782.243 54.811 784.407 57.064 786.076 59.6801C787.722 62.2621 788.532 65.0377 788.537 67.9965Z" stroke="white" stroke-opacity="0.3" stroke-width="1.26"/>
<path d="M320.256 127.99V128.62H320.886H320.911H332.164H332.794V127.99V39.4847V38.8547H332.164H320.717H320.087V39.4847V49.6346C317.098 45.56 313.191 42.4401 308.394 40.2782C302.973 37.8346 297.185 36.6144 290.989 36.6144C283.767 36.6144 277.324 37.8772 271.721 40.4449C266.138 43.0036 261.448 46.4771 257.689 50.916C253.937 55.3465 251.121 60.5145 249.214 66.4352C247.309 72.3509 246.358 78.831 246.358 85.1878C246.358 91.5514 247.359 97.4979 249.392 103.022C251.421 108.537 254.262 113.371 257.966 117.492C261.652 121.619 266.17 124.854 271.465 127.176C276.771 129.503 282.752 130.672 289.395 130.672C296.504 130.672 302.836 129.288 308.324 126.477C313.175 124.012 317.167 120.623 320.256 116.312V127.99ZM320.256 68.0197V69.5145L320.281 69.4909V96.5311C320.281 100.324 319.434 103.683 317.801 106.623C316.128 109.592 313.962 112.097 311.277 114.167C308.587 116.241 305.489 117.836 301.978 118.971C298.442 120.107 294.837 120.663 291.158 120.663C285.723 120.663 281.036 119.732 277.079 117.892C273.102 116.042 269.771 113.503 267.079 110.321C264.386 107.137 262.372 103.371 261.042 99.0348C259.709 94.6893 259.041 89.9647 259.041 85.2114C259.041 80.4516 259.614 75.7397 260.785 71.098L260.786 71.095C261.926 66.4779 263.824 62.3801 266.478 58.7712C269.12 55.177 272.593 52.2663 276.911 50.019C281.195 47.7892 286.475 46.6471 292.728 46.6471C295.812 46.6471 299.003 47.2218 302.28 48.3346C305.562 49.4727 308.573 50.9793 311.272 52.8979C313.963 54.811 316.127 57.064 317.795 59.6801C319.446 62.2689 320.256 65.0523 320.256 68.0197Z" stroke="white" stroke-opacity="0.3" stroke-width="1.26"/>
</svg>
