<svg width="52" height="42" viewBox="0 0 52 42" fill="none" xmlns="http://www.w3.org/2000/svg">
<path fill-rule="evenodd" clip-rule="evenodd" d="M40.9963 0.901516L40.6308 0.236328L40.2876 0.424946L40.6531 1.09013L39.9888 1.45527L40.1774 1.79847L40.8418 1.43333L41.2058 2.09568L41.549 1.90706L41.185 1.24472L41.8481 0.880265L41.6595 0.537064L40.9963 0.901516ZM45.4047 5.11447L45.768 3.31677L45.1922 3.2004L44.8289 4.9981L43.0314 4.63482L42.915 5.2106L44.7125 5.57388L44.3497 7.36883L44.9255 7.4852L45.2883 5.69026L47.0834 6.05307L47.1998 5.47729L45.4047 5.11447ZM49.1937 12.3399L49.6268 10.1973L47.7075 9.80939L47.2745 11.952L45.1325 11.5191L44.7446 13.4384L46.8866 13.8713L46.4536 16.0133L48.3729 16.4012L48.8058 14.2592L50.9485 14.6922L51.3364 12.7729L49.1937 12.3399ZM1.96939 30.4513C1.28797 31.4147 0.947266 32.5191 0.947266 33.7644C0.947266 35.2917 1.37021 36.6428 2.2161 37.8176C3.062 38.969 4.26034 39.8619 5.81115 40.4963C7.38544 41.1307 9.20646 41.4479 11.2742 41.4479C13.3654 41.4479 15.1864 41.1425 16.7373 40.5315C18.3116 39.8971 19.5099 39.0042 20.3323 37.8529C21.1782 36.678 21.6011 35.3152 21.6011 33.7644C21.6011 32.5191 21.2604 31.4147 20.579 30.4513C20.1822 29.8766 19.6818 29.3697 19.0778 28.9304C18.6446 28.6154 18.1581 28.3352 17.6184 28.0899C18.1349 27.7823 18.5876 27.4503 18.9766 27.094C20.1624 26.0077 20.7552 24.6948 20.7552 23.1555C20.7552 21.7692 20.3558 20.5473 19.5569 19.49C18.758 18.4091 17.6419 17.575 16.2086 16.9875C14.7753 16.4001 13.1305 16.1064 11.2742 16.1064C9.44143 16.1064 7.80839 16.4119 6.37507 17.0228C4.94176 17.6102 3.8139 18.4444 2.9915 19.5252C2.19261 20.5826 1.79316 21.7927 1.79316 23.1555C1.79316 24.6948 2.38604 26.0077 3.57181 27.094C3.96076 27.4503 4.41349 27.7823 4.93001 28.0899C4.39026 28.3352 3.90379 28.6154 3.4706 28.9304C2.86661 29.3697 2.3662 29.8766 1.96939 30.4513ZM4.18681 20.4315C3.59158 21.2201 3.29316 22.11 3.29316 23.1555C3.29316 24.5624 3.95859 25.7656 5.69749 26.8011L8.16177 28.2686L5.55071 29.4554C4.45981 29.9513 3.70455 30.5783 3.20373 31.3036L3.19891 31.3106L3.19401 31.3175C2.702 32.0131 2.44727 32.8111 2.44727 33.7644C2.44727 34.9929 2.78033 36.0317 3.42919 36.9353C4.08442 37.8247 5.04027 38.5596 6.37539 39.1065C7.73648 39.6543 9.35949 39.9479 11.2742 39.9479C13.2208 39.9479 14.8457 39.6635 16.1821 39.138C17.5419 38.5891 18.4868 37.8559 19.1117 36.981L19.115 36.9764C19.7637 36.0755 20.1011 35.0243 20.1011 33.7644C20.1011 32.8111 19.8464 32.0131 19.3544 31.3175L19.3495 31.3106L19.3447 31.3036C18.8438 30.5783 18.0886 29.9513 16.9977 29.4554L14.3866 28.2686L16.8509 26.8011C18.5898 25.7656 19.2552 24.5624 19.2552 23.1555C19.2552 22.0794 18.9527 21.1786 18.3601 20.3942L18.3553 20.3879L18.3506 20.3816C17.7384 19.5532 16.8586 18.875 15.6397 18.3755C14.4189 17.8752 12.9732 17.6064 11.2742 17.6064C9.60844 17.6064 8.18078 17.8837 6.96322 18.4027L6.95359 18.4068L6.94391 18.4107C5.72352 18.9109 4.82557 19.5927 4.18681 20.4315ZM15.3489 26.8356L15.3488 26.8355C14.2341 27.5787 12.8207 27.8628 11.2742 27.8628C9.7448 27.8628 8.34853 27.5553 7.20785 26.8058L7.19946 26.8002L7.19115 26.7946C6.01894 26.0017 5.33326 24.8385 5.33326 23.4022C5.33326 21.966 5.96733 20.7669 7.16432 19.9689C8.28242 19.2235 9.71025 18.9416 11.2742 18.9416C12.8619 18.9416 14.3147 19.2151 15.4238 19.9718C16.6238 20.7655 17.2151 21.9817 17.2151 23.4022C17.2151 24.8469 16.5428 26.0279 15.3572 26.8299L15.3489 26.8356ZM14.5873 21.217C13.8354 20.7001 12.731 20.4416 11.2742 20.4416C9.86438 20.4416 8.77177 20.7001 7.99637 21.217C7.22097 21.7339 6.83326 22.4623 6.83326 23.4022C6.83326 24.2951 7.23271 25.0118 8.03161 25.5522C8.85401 26.0926 9.93487 26.3628 11.2742 26.3628C12.6605 26.3628 13.7414 26.1044 14.5168 25.5874C15.3157 25.047 15.7151 24.3186 15.7151 23.4022C15.7151 22.4388 15.3392 21.7104 14.5873 21.217ZM16.0575 37.4772L16.0461 37.4847C14.7989 38.3052 13.1395 38.6127 11.2742 38.6127C9.43384 38.6127 7.79201 38.2858 6.5299 37.4444C5.18428 36.5473 4.48737 35.203 4.48737 33.5882C4.48737 31.9628 5.20389 30.62 6.54744 29.7086C7.82565 28.8181 9.45468 28.4579 11.2742 28.4579C13.1011 28.4579 14.7352 28.8002 15.9977 29.6712C17.3535 30.5895 18.061 31.9505 18.061 33.5882C18.061 35.197 17.4004 36.5584 16.0687 37.4696L16.0575 37.4772ZM15.1512 30.9095C16.0911 31.5439 16.561 32.4368 16.561 33.5882C16.561 34.7395 16.1146 35.6207 15.2217 36.2316C14.3288 36.819 13.013 37.1127 11.2742 37.1127C9.58241 37.1127 8.27833 36.8073 7.36195 36.1963C6.44556 35.5854 5.98737 34.716 5.98737 33.5882C5.98737 32.4603 6.45731 31.5792 7.39719 30.9448C8.33707 30.2868 9.62941 29.9579 11.2742 29.9579C12.9425 29.9579 14.2348 30.2751 15.1512 30.9095ZM27.0213 18.3286L27.0112 18.3361C26.545 18.6796 26.282 19.1469 26.282 19.9482V39.8221C27.0614 39.7155 27.5571 39.5278 27.846 39.3297L27.8541 39.3242L27.8622 39.3187C28.194 39.0975 28.4631 38.7255 28.4631 37.8529V32.9538V32.3241L28.9126 31.883L30.7806 30.0503L31.9903 28.8634L33.0215 30.2082L39.8577 39.1235L39.8589 39.1251C40.2615 39.6476 40.7728 39.9127 41.5589 39.9127C41.9802 39.9127 42.3504 39.8265 42.686 39.631L34.143 28.8078L33.2914 27.7288L34.292 26.7864L40.944 20.5217L40.9485 20.5174C41.4945 19.9939 41.8439 19.6183 42.036 19.3739L43.1928 20.2828L42.036 19.3739C42.0949 19.2988 42.1026 19.2579 42.1031 19.2135C42.1019 19.2049 42.0953 19.1634 42.0629 19.0835C42.0172 18.9706 41.9313 18.8085 41.7799 18.5947L41.7716 18.583L41.7636 18.5712C41.6704 18.4341 41.5657 18.2978 41.4487 18.1623L31.0054 28.2523L28.4631 30.7085V27.1735V17.7364C27.8161 17.8638 27.3543 18.0745 27.0314 18.321L27.0213 18.3286ZM28.4631 16.2138C27.5054 16.3631 26.7248 16.668 26.1214 17.1285C25.2285 17.7864 24.782 18.7263 24.782 19.9482V39.9127V41.4127C25.3269 41.4127 25.8269 41.3864 26.282 41.3339C27.3187 41.2144 28.1228 40.9587 28.6943 40.5668C29.5402 40.0029 29.9631 39.0982 29.9631 37.8529V32.9538L30.7524 32.1793L31.8311 31.121L32.7507 32.3202L38.6688 40.0381C39.3737 40.9545 40.3371 41.4127 41.5589 41.4127C42.8512 41.4127 43.8968 40.8605 44.6957 39.7561L35.3204 27.8784L41.9818 21.6047C42.5458 21.0643 42.957 20.6296 43.2154 20.3006C43.4739 19.9717 43.6031 19.6075 43.6031 19.208C43.6031 18.7851 43.4034 18.2916 43.004 17.7277C42.6045 17.1403 42.0758 16.5998 41.4179 16.1064L31.4631 25.7243L29.9631 27.1735V25.0878V17.6064V16.1064C29.4224 16.1064 28.9224 16.1422 28.4631 16.2138ZM39.0438 11.1368L37.438 10.8122L37.6319 9.8526L39.2377 10.1771L39.562 8.57242L40.5217 8.76637L40.1974 10.3711L41.8004 10.6951L41.6064 11.6547L40.0034 11.3307L39.6792 12.9348L38.7196 12.7408L39.0438 11.1368Z" fill="url(#paint0_linear_584_22951)"/>
<defs>
<linearGradient id="paint0_linear_584_22951" x1="26.1418" y1="0.236328" x2="26.1418" y2="41.4479" gradientUnits="userSpaceOnUse">
<stop stop-color="#85ECFF"/>
<stop offset="1" stop-color="#F5DB3A"/>
</linearGradient>
</defs>
</svg>
