<svg width="31" height="34" viewBox="0 0 31 34" fill="none" xmlns="http://www.w3.org/2000/svg">
<path fill-rule="evenodd" clip-rule="evenodd" d="M6.1567 1.31225L6.20128 1.17507L6.35921 0.688985L6.47115 0.344493C6.62039 -0.11483 7.27021 -0.114832 7.41945 0.344492L7.53139 0.688987L7.68932 1.17507L7.7339 1.31225L8.65314 4.1414C8.71989 4.34682 8.91131 4.48589 9.1273 4.48589H12.102H12.2463H12.7574H13.1196C13.6026 4.48589 13.8034 5.10391 13.4126 5.38779L13.1196 5.6007L12.7061 5.90111L12.5894 5.98589L10.1828 7.73441C10.0081 7.86136 9.93495 8.08639 10.0017 8.29181L10.9209 11.121L10.9655 11.2581L11.1235 11.7442L11.2354 12.0887C11.3846 12.548 10.8589 12.93 10.4682 12.6461L10.1751 12.4332L9.76166 12.1328L9.64497 12.048L7.23834 10.2995C7.06361 10.1725 6.82699 10.1725 6.65226 10.2995L4.24563 12.048L4.12894 12.1328L3.71545 12.4332L3.42241 12.6461C3.03169 12.93 2.50597 12.548 2.65521 12.0887L2.76715 11.7442L2.92508 11.2581L2.96966 11.121L3.88891 8.29181C3.95565 8.08639 3.88253 7.86136 3.7078 7.73441L1.30117 5.98589L1.18448 5.90111L0.770994 5.6007L0.477952 5.38779C0.0872279 5.10391 0.288032 4.48589 0.770994 4.48589H1.13322H1.64431H1.78855H4.7633C4.97929 4.48589 5.17071 4.34682 5.23745 4.1414L6.1567 1.31225ZM6.66404 4.60493L6.9453 3.7393L7.22656 4.60493C7.49412 5.42838 8.26147 5.98589 9.1273 5.98589H10.0375L9.30113 6.52088C8.60066 7.0298 8.30755 7.93188 8.57511 8.75533L8.85637 9.62096L8.12002 9.08598C7.41956 8.57706 6.47105 8.57705 5.77058 9.08598L5.03423 9.62096L5.31549 8.75533C5.58305 7.93189 5.28994 7.0298 4.58947 6.52088L3.85313 5.98589H4.7633C5.62913 5.98589 6.39648 5.42838 6.66404 4.60493ZM15.5026 16.7625L17.5016 10.6102L19.5006 16.7625C19.8353 17.7926 20.7952 18.49 21.8782 18.49H28.3471L23.1137 22.2923C22.2375 22.9289 21.8708 24.0574 22.2055 25.0874L24.2045 31.2397L18.971 27.4374C18.0948 26.8008 16.9083 26.8008 16.0321 27.4374L10.7986 31.2397L12.7976 25.0874C13.1323 24.0574 12.7657 22.9289 11.8895 22.2923L6.65599 18.49H13.1249C14.208 18.49 15.1679 17.7926 15.5026 16.7625ZM16.5505 8.68317C16.8499 7.76186 18.1533 7.76186 18.4526 8.68317L20.9272 16.299C21.061 16.711 21.445 16.99 21.8782 16.99H29.886C30.8547 16.99 31.2575 18.2296 30.4738 18.799L23.9953 23.5059C23.6449 23.7605 23.4982 24.2119 23.6321 24.6239L26.1066 32.2397C26.406 33.161 25.3515 33.9272 24.5678 33.3578L18.0893 28.6509C17.7389 28.3963 17.2643 28.3963 16.9138 28.6509L10.4354 33.3578C9.65165 33.9272 8.59717 33.161 8.89652 32.2397L11.3711 24.6239C11.5049 24.2119 11.3583 23.7605 11.0078 23.5059L4.52937 18.799C3.74565 18.2296 4.14843 16.99 5.11715 16.99H13.1249C13.5581 16.99 13.9421 16.711 14.076 16.299L16.5505 8.68317Z" fill="url(#paint0_linear_584_22968)"/>
<defs>
<linearGradient id="paint0_linear_584_22968" x1="15.5797" y1="0" x2="15.5797" y2="33.5533" gradientUnits="userSpaceOnUse">
<stop stop-color="#85ECFF"/>
<stop offset="1" stop-color="#F5DB3A"/>
</linearGradient>
</defs>
</svg>
