<svg width="35" height="38" viewBox="0 0 35 38" fill="none" xmlns="http://www.w3.org/2000/svg">
<path fill-rule="evenodd" clip-rule="evenodd" d="M20.2231 8.14865C20.2231 11.5153 17.4938 14.2446 14.1272 14.2446C10.7605 14.2446 8.03125 11.5153 8.03125 8.14865C8.03125 4.78197 10.7605 2.05273 14.1272 2.05273C17.4938 2.05273 20.2231 4.78197 20.2231 8.14865ZM21.7231 8.14865C21.7231 12.3438 18.3223 15.7446 14.1272 15.7446C9.93206 15.7446 6.53125 12.3438 6.53125 8.14865C6.53125 3.95354 9.93206 0.552734 14.1272 0.552734C18.3223 0.552734 21.7231 3.95354 21.7231 8.14865ZM14.1275 16.3535C6.46307 16.3535 0.203125 22.3529 0.203125 29.81V37.256C0.203125 37.6702 0.538911 38.006 0.953125 38.006C1.36734 38.006 1.70312 37.6702 1.70312 37.256V29.81C1.70312 23.2319 7.23991 17.8535 14.1275 17.8535C17.5863 17.8535 20.7096 19.2125 22.9596 21.4009C22.9906 21.4311 23.0236 21.458 23.058 21.4817C23.0637 21.5928 23.0811 21.7074 23.1118 21.8246C23.3588 22.7702 22.6901 23.7089 21.7158 23.7844C20.0924 23.9102 19.7126 26.1207 21.2009 26.7812C22.0941 27.1776 22.4111 28.2856 21.8627 29.0945C21.0338 30.3169 22.1839 31.8087 23.4826 31.5144L23.4824 36.5638C23.4824 36.8384 23.6325 37.0911 23.8738 37.2225C24.115 37.3538 24.4087 37.3428 24.6394 37.1937L27.3022 35.4735L29.9649 37.1937C30.1956 37.3428 30.4893 37.3538 30.7305 37.2225C30.9717 37.0911 31.1219 36.8385 31.1219 36.5638L31.1221 30.9218C31.1649 30.9345 31.2076 30.949 31.2501 30.9656C32.7673 31.5566 34.0686 29.7298 33.0143 28.489C32.3814 27.7443 32.5766 26.6084 33.4217 26.1176C34.8297 25.2999 34.2128 23.1436 32.5854 23.1942C31.6086 23.2247 30.8422 22.3639 30.9854 21.3971C31.2239 19.7865 29.1534 18.9244 28.1784 20.2283C27.5931 21.011 26.4423 21.0735 25.7757 20.3588C25.1898 19.7305 24.3661 19.7347 23.779 20.1103C21.2741 17.782 17.8707 16.3535 14.1275 16.3535ZM24.9825 35.1863L24.9827 31.2334C25.4935 31.3596 25.9344 31.7396 26.1059 32.2904C26.5898 33.8451 28.8293 33.7235 29.142 32.1256C29.2097 31.7799 29.3841 31.4867 29.6221 31.2696L29.6219 35.1864L27.7091 33.9506C27.4614 33.7906 27.1429 33.7906 26.8952 33.9506L24.9825 35.1863ZM24.5631 21.4455C25.0464 23.2955 23.7381 25.1322 21.8317 25.2799C21.8137 25.2813 21.8019 25.2837 21.7954 25.2854C21.7921 25.2862 21.7898 25.2869 21.7882 25.2875C21.7844 25.2928 21.7746 25.3083 21.7698 25.3363C21.765 25.3643 21.769 25.3822 21.7708 25.3884C21.7722 25.3895 21.7741 25.391 21.7769 25.3928C21.7825 25.3966 21.7928 25.4028 21.8093 25.4101C23.5571 26.1857 24.1773 28.3537 23.1042 29.9363C23.0941 29.9513 23.0886 29.962 23.0858 29.9681C23.0844 29.9711 23.0836 29.9734 23.083 29.975C23.0847 29.9813 23.0908 29.9986 23.1097 30.0198C23.1286 30.0411 23.1451 30.0491 23.1511 30.0515C23.1528 30.0512 23.1551 30.0505 23.1583 30.0495C23.1647 30.0475 23.176 30.0433 23.192 30.035C24.8881 29.1521 26.9698 30.0189 27.5381 31.8446C27.5435 31.8619 27.5484 31.8728 27.5515 31.8788C27.553 31.8818 27.5543 31.8839 27.5552 31.8853C27.5611 31.8879 27.5784 31.8939 27.6068 31.8924C27.6352 31.8909 27.6518 31.883 27.6574 31.8798L27.6585 31.8775L27.6604 31.8729C27.6628 31.8666 27.6665 31.8552 27.67 31.8375C28.0372 29.9609 30.0129 28.8738 31.7946 29.5679C31.8114 29.5744 31.823 29.5774 31.8297 29.5787C31.8329 29.5794 31.8354 29.5797 31.837 29.5799C31.8428 29.5768 31.8583 29.5671 31.8748 29.5439C31.8913 29.5208 31.8954 29.5029 31.8965 29.4965L31.8953 29.4941L31.8929 29.4899C31.8895 29.4841 31.8829 29.4741 31.8712 29.4603C30.6331 28.0032 31.0149 25.7808 32.6684 24.8205C32.684 24.8114 32.6936 24.8042 32.6987 24.7998C32.7013 24.7977 32.7031 24.796 32.7043 24.7948C32.7055 24.7884 32.7075 24.7702 32.6997 24.7429C32.6919 24.7155 32.6805 24.7012 32.6761 24.6963C32.6755 24.6962 32.6747 24.696 32.6739 24.6959C32.6725 24.6956 32.6708 24.6953 32.6688 24.695C32.6621 24.6941 32.6501 24.693 32.6321 24.6935C30.7209 24.753 29.2214 23.0688 29.5016 21.1774C29.5026 21.1704 29.5033 21.1644 29.5037 21.1592C29.5044 21.151 29.5044 21.1449 29.5043 21.1407C29.5042 21.1374 29.5041 21.135 29.5039 21.1333C29.4996 21.1284 29.4866 21.1154 29.4604 21.1045C29.4341 21.0936 29.4158 21.0935 29.4093 21.0939C29.408 21.095 29.4061 21.0966 29.4037 21.0988C29.3988 21.1035 29.3905 21.1121 29.3797 21.1266C28.2346 22.6579 25.9829 22.7802 24.6788 21.3818C24.6665 21.3686 24.6573 21.3609 24.6519 21.3568C24.6492 21.3548 24.6472 21.3535 24.6457 21.3526C24.6392 21.3528 24.621 21.3549 24.5961 21.3686C24.5712 21.3823 24.5597 21.3966 24.556 21.4019L24.556 21.404L24.5564 21.4094C24.5569 21.4161 24.5585 21.428 24.5631 21.4455Z" fill="url(#paint0_linear_584_22943)"/>
<defs>
<linearGradient id="paint0_linear_584_22943" x1="17.2043" y1="0.552734" x2="17.2043" y2="38.0059" gradientUnits="userSpaceOnUse">
<stop stop-color="#85ECFF"/>
<stop offset="1" stop-color="#FBDB3C"/>
</linearGradient>
</defs>
</svg>
